<?xml version="1.0" encoding="UTF-8" standalone="no"?>
<!-- Created with Inkscape (http://www.inkscape.org/) -->

<svg
   width="91.177895mm"
   height="62.690754mm"
   viewBox="0 0 91.177895 62.690754"
   version="1.1"
   id="svg1"
   inkscape:version="1.3.2 (1:1.3.2+202311252150+091e20ef0f)"
   sodipodi:docname="weakorder3-4.svg"
   inkscape:export-filename="weakorder3-4.png"
   inkscape:export-xdpi="90"
   inkscape:export-ydpi="90"
   xmlns:inkscape="http://www.inkscape.org/namespaces/inkscape"
   xmlns:sodipodi="http://sodipodi.sourceforge.net/DTD/sodipodi-0.dtd"
   xmlns="http://www.w3.org/2000/svg"
   xmlns:svg="http://www.w3.org/2000/svg">
  <sodipodi:namedview
     id="namedview1"
     pagecolor="#ffffff"
     bordercolor="#666666"
     borderopacity="1.0"
     inkscape:showpageshadow="2"
     inkscape:pageopacity="0.0"
     inkscape:pagecheckerboard="0"
     inkscape:deskcolor="#d1d1d1"
     inkscape:document-units="mm"
     inkscape:zoom="0.72693603"
     inkscape:cx="380.36359"
     inkscape:cy="548.87911"
     inkscape:window-width="1850"
     inkscape:window-height="1016"
     inkscape:window-x="0"
     inkscape:window-y="0"
     inkscape:window-maximized="1"
     inkscape:current-layer="layer1" />
  <defs
     id="defs1" />
  <g
     inkscape:label="Calque 1"
     inkscape:groupmode="layer"
     id="layer1"
     transform="translate(-4.2333332,-3.1749958)">
    <path
       id="path7"
       d="m 19.905088,54.232988 h -0.07441 c -0.227376,0.235645 -0.545703,0.243913 -0.731738,0.252181 v 0.223242 c 0.128157,-0.0041 0.310058,-0.0124 0.504362,-0.09095 v 2.000911 H 19.11961 v 0.223242 h 1.269173 v -0.223242 h -0.483695 z m 1.443839,1.885156 -0.475423,0.475424 v 0.248046 h 1.533757 v -0.272851 h -0.698666 c -0.04961,0 -0.09508,0.0041 -0.14056,0.0041 H 21.15049 c 0.119889,-0.107487 0.413411,-0.396875 0.533301,-0.508496 0.07441,-0.07028 0.268717,-0.23151 0.343131,-0.30179 0.173633,-0.173633 0.380339,-0.376205 0.380339,-0.7028 0,-0.44235 -0.310059,-0.826823 -0.818555,-0.826823 -0.438216,0 -0.657324,0.297657 -0.748275,0.628386 0.04548,0.06615 0.06615,0.09095 0.07441,0.103353 0.0083,0.0083 0.04548,0.05788 0.08268,0.111621 0.07855,-0.297657 0.186035,-0.599447 0.537435,-0.599447 0.359667,0 0.558105,0.289388 0.558105,0.591178 0,0.326595 -0.219108,0.545704 -0.446484,0.777214 z m 1.610238,-1.25677 c 0.111621,-0.268718 0.359668,-0.405143 0.595312,-0.405143 0.198438,0 0.388607,0.115755 0.388607,0.359667 0,0.235645 -0.157096,0.463021 -0.392741,0.516765 -0.0248,0.0041 -0.02894,0.0041 -0.305924,0.02894 v 0.231511 h 0.276985 c 0.413412,0 0.500228,0.359668 0.500228,0.549837 0,0.30179 -0.177767,0.549837 -0.475423,0.549837 -0.264583,0 -0.570508,-0.136425 -0.740006,-0.396875 l -0.04134,0.231511 c 0.281119,0.359668 0.636653,0.396875 0.789615,0.396875 0.47129,0 0.806153,-0.372071 0.806153,-0.777214 0,-0.347265 -0.268718,-0.587044 -0.529167,-0.669726 0.293522,-0.157097 0.425814,-0.417546 0.425814,-0.661459 0,-0.330729 -0.318327,-0.58291 -0.698666,-0.58291 -0.297656,0 -0.578776,0.152962 -0.740006,0.42168 z m 0,0"
       style="fill:#000000;fill-opacity:1;fill-rule:nonzero;stroke:none;stroke-width:0.352778"
       aria-label="123" />
    <path
       id="path8"
       d="m 9.425107,41.118544 -0.4754231,0.475424 v 0.248046 H 10.48344 V 41.569163 H 9.784775 c -0.049609,0 -0.095085,0.0041 -0.1405599,0.0041 H 9.2266696 c 0.1198893,-0.107487 0.4134114,-0.396875 0.5333007,-0.508496 0.074414,-0.07028 0.2687177,-0.231511 0.3431317,-0.30179 0.173633,-0.173633 0.380338,-0.376205 0.380338,-0.7028 0,-0.44235 -0.310058,-0.826823 -0.8185543,-0.826823 -0.4382161,0 -0.6573242,0.297656 -0.7482747,0.628386 0.045475,0.06614 0.066146,0.09095 0.074414,0.103352 0.00827,0.0083 0.045475,0.05788 0.082682,0.111622 0.078548,-0.297657 0.1860352,-0.599447 0.5374349,-0.599447 0.3596679,0 0.5581051,0.289388 0.5581051,0.591178 0,0.326595 -0.2191077,0.545703 -0.446484,0.777214 z m 2.403988,-1.885156 h -0.07441 c -0.227377,0.235645 -0.545704,0.243913 -0.731739,0.252181 v 0.223242 c 0.128158,-0.0041 0.310059,-0.0124 0.504362,-0.09095 v 2.000911 h -0.483691 v 0.223242 h 1.269173 v -0.223242 h -0.483691 z m 1.13068,0.628386 c 0.111621,-0.268718 0.359668,-0.405144 0.595312,-0.405144 0.198438,0 0.388607,0.115756 0.388607,0.359668 0,0.235645 -0.157096,0.463021 -0.392741,0.516765 -0.0248,0.0041 -0.02894,0.0041 -0.305924,0.02894 v 0.231511 h 0.276986 c 0.413411,0 0.500227,0.359668 0.500227,0.549837 0,0.30179 -0.177767,0.549837 -0.475423,0.549837 -0.264583,0 -0.570508,-0.136426 -0.740006,-0.396875 l -0.04134,0.231511 c 0.281119,0.359668 0.636653,0.396875 0.789616,0.396875 0.471289,0 0.806152,-0.372071 0.806152,-0.777214 0,-0.347266 -0.268718,-0.587044 -0.529167,-0.669726 0.293522,-0.157097 0.425814,-0.417546 0.425814,-0.661459 0,-0.330729 -0.318327,-0.58291 -0.698665,-0.58291 -0.297657,0 -0.578776,0.152962 -0.740007,0.42168 z m 0,0"
       style="fill:#000000;fill-opacity:1;fill-rule:nonzero;stroke:none;stroke-width:0.352778"
       aria-label="213" />
    <path
       id="path9"
       d="m 29.904478,39.233388 h -0.07441 c -0.227376,0.235645 -0.545703,0.243913 -0.731738,0.252181 v 0.223242 c 0.128157,-0.0041 0.310058,-0.0124 0.504362,-0.09095 v 2.000911 H 29.119 v 0.223242 h 1.269173 v -0.223242 h -0.483695 z m 1.13068,0.628386 c 0.111621,-0.268718 0.359668,-0.405144 0.595313,-0.405144 0.198437,0 0.388606,0.115756 0.388606,0.359668 0,0.235645 -0.157096,0.463021 -0.39274,0.516765 -0.02481,0.0041 -0.02894,0.0041 -0.305925,0.02894 v 0.231511 h 0.276986 c 0.413411,0 0.500228,0.359668 0.500228,0.549837 0,0.30179 -0.177767,0.549837 -0.475424,0.549837 -0.264583,0 -0.570507,-0.136426 -0.740006,-0.396875 l -0.04134,0.231511 c 0.28112,0.359668 0.636653,0.396875 0.789616,0.396875 0.471289,0 0.806152,-0.372071 0.806152,-0.777214 0,-0.347266 -0.268717,-0.587044 -0.529167,-0.669726 0.293522,-0.157097 0.425814,-0.417546 0.425814,-0.661459 0,-0.330729 -0.318327,-0.58291 -0.698665,-0.58291 -0.297656,0 -0.578776,0.152962 -0.740007,0.42168 z m 2.238623,1.25677 -0.475423,0.475424 v 0.248046 h 1.533756 v -0.272851 h -0.698665 c -0.04961,0 -0.09509,0.0041 -0.14056,0.0041 h -0.417546 c 0.11989,-0.107487 0.413412,-0.396875 0.533301,-0.508496 0.07441,-0.07028 0.268718,-0.231511 0.343132,-0.30179 0.173633,-0.173633 0.380338,-0.376205 0.380338,-0.7028 0,-0.44235 -0.310058,-0.826823 -0.818554,-0.826823 -0.438217,0 -0.657324,0.297656 -0.748275,0.628386 0.04547,0.06614 0.06615,0.09095 0.07441,0.103352 0.0083,0.0083 0.04547,0.05788 0.08268,0.111622 0.07855,-0.297657 0.186035,-0.599447 0.537435,-0.599447 0.359668,0 0.558106,0.289388 0.558106,0.591178 0,0.326595 -0.219108,0.545703 -0.446485,0.777214 z m 0,0"
       style="fill:#000000;fill-opacity:1;fill-rule:nonzero;stroke:none;stroke-width:0.352778"
       aria-label="132" />
    <path
       id="path10"
       d="m 9.425107,26.118942 -0.4754231,0.475424 v 0.248046 H 10.48344 V 26.569561 H 9.784775 c -0.049609,0 -0.095085,0.0041 -0.1405599,0.0041 H 9.2266696 c 0.1198893,-0.107487 0.4134114,-0.396875 0.5333007,-0.508496 0.074414,-0.07028 0.2687177,-0.23151 0.3431317,-0.30179 0.173633,-0.173633 0.380338,-0.376205 0.380338,-0.7028 0,-0.44235 -0.310058,-0.826823 -0.8185543,-0.826823 -0.4382161,0 -0.6573242,0.297657 -0.7482747,0.628386 0.045475,0.06615 0.066146,0.09095 0.074414,0.103353 0.00827,0.0083 0.045475,0.05788 0.082682,0.111621 0.078548,-0.297657 0.1860352,-0.599447 0.5374349,-0.599447 0.3596679,0 0.5581051,0.289388 0.5581051,0.591178 0,0.326595 -0.2191077,0.545703 -0.446484,0.777214 z m 1.610238,-1.25677 c 0.111621,-0.268718 0.359668,-0.405144 0.595312,-0.405144 0.198438,0 0.388607,0.115756 0.388607,0.359668 0,0.235645 -0.157096,0.463021 -0.392741,0.516765 -0.02481,0.0041 -0.02894,0.0041 -0.305924,0.02894 v 0.231511 h 0.276985 c 0.413412,0 0.500228,0.359668 0.500228,0.549837 0,0.30179 -0.177767,0.549837 -0.475423,0.549837 -0.264583,0 -0.570508,-0.136426 -0.740007,-0.396875 l -0.04134,0.231511 c 0.28112,0.359668 0.636654,0.396875 0.789616,0.396875 0.471289,0 0.806153,-0.372071 0.806153,-0.777214 0,-0.347265 -0.268718,-0.587044 -0.529167,-0.669726 0.293522,-0.157097 0.425814,-0.417546 0.425814,-0.661459 0,-0.330729 -0.318327,-0.58291 -0.698666,-0.58291 -0.297656,0 -0.578776,0.152962 -0.740006,0.42168 z m 2.71818,-0.628386 h -0.07441 c -0.227376,0.235645 -0.545703,0.243913 -0.731739,0.252181 v 0.223242 c 0.128158,-0.0041 0.310059,-0.0124 0.504363,-0.09095 v 2.000911 h -0.483692 v 0.223242 h 1.269173 V 26.61917 h -0.483691 z m 0,0"
       style="fill:#000000;fill-opacity:1;fill-rule:nonzero;stroke:none;stroke-width:0.352778"
       aria-label="231" />
    <path
       id="path11"
       d="m 29.110728,24.862172 c 0.111621,-0.268718 0.359668,-0.405144 0.595312,-0.405144 0.198438,0 0.388607,0.115756 0.388607,0.359668 0,0.235645 -0.157096,0.463021 -0.392741,0.516765 -0.0248,0.0041 -0.02894,0.0041 -0.305924,0.02894 v 0.231511 h 0.276985 c 0.413412,0 0.500228,0.359668 0.500228,0.549837 0,0.30179 -0.177767,0.549837 -0.475423,0.549837 -0.264583,0 -0.570508,-0.136426 -0.740006,-0.396875 l -0.04134,0.231511 c 0.281119,0.359668 0.636653,0.396875 0.789615,0.396875 0.471289,0 0.806153,-0.372071 0.806153,-0.777214 0,-0.347265 -0.268718,-0.587044 -0.529167,-0.669726 0.293522,-0.157097 0.425814,-0.417546 0.425814,-0.661459 0,-0.330729 -0.318327,-0.58291 -0.698665,-0.58291 -0.297657,0 -0.578776,0.152963 -0.740007,0.42168 z m 2.71818,-0.628386 h -0.07441 c -0.227376,0.235645 -0.545703,0.243913 -0.731738,0.252181 v 0.223242 c 0.128157,-0.0041 0.310058,-0.0124 0.504362,-0.09095 V 26.61917 H 31.04343 v 0.223242 h 1.269173 V 26.61917 h -0.483695 z m 1.444873,1.885156 -0.475423,0.475424 v 0.248046 h 1.533756 v -0.272851 h -0.698665 c -0.04961,0 -0.09509,0.0041 -0.14056,0.0041 h -0.417546 c 0.11989,-0.107487 0.413412,-0.396875 0.533301,-0.508496 0.07441,-0.07028 0.268718,-0.23151 0.343132,-0.30179 0.173633,-0.173633 0.380338,-0.376205 0.380338,-0.7028 0,-0.44235 -0.310058,-0.826823 -0.818554,-0.826823 -0.438217,0 -0.657324,0.297657 -0.748275,0.628386 0.04547,0.06615 0.06615,0.09095 0.07441,0.103353 0.0083,0.0083 0.04547,0.05788 0.08268,0.111621 0.07855,-0.297657 0.186035,-0.599447 0.537435,-0.599447 0.359668,0 0.558106,0.289388 0.558106,0.591178 0,0.326595 -0.219108,0.545703 -0.446485,0.777214 z m 0,0"
       style="fill:#000000;fill-opacity:1;fill-rule:nonzero;stroke:none;stroke-width:0.352778"
       aria-label="312" />
    <path
       id="path12"
       d="m 19.111338,9.8615377 c 0.111621,-0.268717 0.359668,-0.405143 0.595312,-0.405143 0.198438,0 0.388607,0.115755 0.388607,0.359668 0,0.2356443 -0.157096,0.4630213 -0.392741,0.5167643 -0.0248,0.0041 -0.02894,0.0041 -0.305924,0.02894 v 0.23151 h 0.276986 c 0.413411,0 0.500227,0.359668 0.500227,0.549837 0,0.301791 -0.177767,0.549838 -0.475423,0.549838 -0.264583,0 -0.570508,-0.136426 -0.740006,-0.396875 l -0.04134,0.23151 c 0.281119,0.359668 0.636653,0.396875 0.789615,0.396875 0.471289,0 0.806153,-0.37207 0.806153,-0.777214 0,-0.347265 -0.268718,-0.587044 -0.529167,-0.669726 0.293522,-0.157096 0.425814,-0.417546 0.425814,-0.6614583 0,-0.330729 -0.318327,-0.58291 -0.698665,-0.58291 -0.297657,0 -0.578776,0.152962 -0.740007,0.421679 z m 2.237589,1.2567713 -0.475423,0.475423 v 0.248047 h 1.533757 v -0.272852 h -0.698666 c -0.04961,0 -0.09508,0.0041 -0.14056,0.0041 H 21.15049 c 0.119889,-0.107487 0.413411,-0.396875 0.533301,-0.508496 0.07441,-0.07028 0.268717,-0.23151 0.343131,-0.30179 0.173633,-0.173633 0.380339,-0.376204 0.380339,-0.702799 0,-0.4423513 -0.310059,-0.8268233 -0.818555,-0.8268233 -0.438216,0 -0.657324,0.297656 -0.748275,0.628385 0.04548,0.06615 0.06615,0.09095 0.07441,0.103353 0.0083,0.0083 0.04548,0.05788 0.08268,0.1116213 0.07855,-0.2976563 0.186035,-0.5994473 0.537435,-0.5994473 0.359667,0 0.558105,0.289388 0.558105,0.5911793 0,0.326595 -0.219108,0.545703 -0.446484,0.777213 z m 2.403988,-1.8851563 h -0.07441 c -0.227377,0.235644 -0.545703,0.243912 -0.731738,0.252181 v 0.223242 c 0.128157,-0.0041 0.310058,-0.0124 0.504361,-0.09095 v 2.0009123 h -0.483691 v 0.223242 h 1.269173 v -0.223242 h -0.483691 z m 0,0"
       style="fill:#000000;fill-opacity:1;fill-rule:nonzero;stroke:none;stroke-width:0.352778"
       aria-label="321" />
    <path
       id="path13"
       d="M 19.899372,52.965968 13.384019,43.194705"
       style="fill:none;stroke:#ff0000;stroke-width:0.140582;stroke-linecap:butt;stroke-linejoin:miter;stroke-miterlimit:10;stroke-dasharray:none;stroke-opacity:1" />
    <path
       id="path14"
       d="m 23.384302,52.965968 6.515353,-9.771263"
       style="fill:none;stroke:#0000ff;stroke-width:0.140582;stroke-linecap:butt;stroke-linejoin:miter;stroke-miterlimit:10;stroke-dasharray:none;stroke-opacity:1" />
    <path
       id="path15"
       d="M 11.641716,37.965783 V 28.194517"
       style="fill:none;stroke:#0000ff;stroke-width:0.140582;stroke-linecap:butt;stroke-linejoin:miter;stroke-miterlimit:10;stroke-dasharray:none;stroke-opacity:1" />
    <path
       id="path16"
       d="M 31.641958,37.965783 V 28.194517"
       style="fill:none;stroke:#ff0000;stroke-width:0.140582;stroke-linecap:butt;stroke-linejoin:miter;stroke-miterlimit:10;stroke-dasharray:none;stroke-opacity:1" />
    <path
       id="path17"
       d="m 13.384181,22.965595 6.515354,-9.771259"
       style="fill:none;stroke:#ff0000;stroke-width:0.140582;stroke-linecap:butt;stroke-linejoin:miter;stroke-miterlimit:10;stroke-dasharray:none;stroke-opacity:1" />
    <path
       id="path18"
       d="M 29.899493,22.965595 23.384139,13.194336"
       style="fill:none;stroke:#0000ff;stroke-width:0.140582;stroke-linecap:butt;stroke-linejoin:miter;stroke-miterlimit:10;stroke-dasharray:none;stroke-opacity:1" />
    <path
       id="path19"
       d="m 64.060171,63.174437 h -0.07441 c -0.227376,0.235645 -0.545703,0.243913 -0.731738,0.252181 v 0.223242 c 0.128157,-0.0041 0.310058,-0.0124 0.504362,-0.09095 v 2.000911 h -0.483692 v 0.223242 h 1.269173 v -0.223242 h -0.483691 z m 1.444873,1.885156 -0.475423,0.475424 v 0.248046 h 1.533756 v -0.272851 h -0.698665 c -0.04961,0 -0.09508,0.0041 -0.14056,0.0041 h -0.417546 c 0.11989,-0.107487 0.413412,-0.396875 0.533301,-0.508496 0.07441,-0.07028 0.268718,-0.23151 0.343132,-0.30179 0.173633,-0.173633 0.380338,-0.376205 0.380338,-0.7028 0,-0.44235 -0.310058,-0.826823 -0.818554,-0.826823 -0.438217,0 -0.657325,0.297657 -0.748275,0.628386 0.04547,0.06615 0.06615,0.09095 0.07441,0.103353 0.0083,0.0083 0.04548,0.05788 0.08268,0.111621 0.07855,-0.297657 0.186035,-0.599447 0.537435,-0.599447 0.359668,0 0.558106,0.289388 0.558106,0.591178 0,0.326595 -0.219109,0.545704 -0.446485,0.777214 z m 1.609204,-1.25677 c 0.111621,-0.268718 0.359668,-0.405143 0.595312,-0.405143 0.198438,0 0.388607,0.115755 0.388607,0.359667 0,0.235645 -0.157096,0.463021 -0.392741,0.516765 -0.0248,0.0041 -0.02894,0.0041 -0.305924,0.02894 v 0.231511 h 0.276985 c 0.413412,0 0.500228,0.359668 0.500228,0.549837 0,0.30179 -0.177766,0.549837 -0.475423,0.549837 -0.264583,0 -0.570508,-0.136425 -0.740006,-0.396875 l -0.04134,0.231511 c 0.281119,0.359668 0.636653,0.396875 0.789615,0.396875 0.47129,0 0.806153,-0.372071 0.806153,-0.777214 0,-0.347265 -0.268718,-0.587044 -0.529167,-0.669726 0.293522,-0.157097 0.425814,-0.417546 0.425814,-0.661459 0,-0.330729 -0.318327,-0.58291 -0.698665,-0.58291 -0.297657,0 -0.578776,0.152962 -0.740007,0.42168 z m 2.9993,1.322916 h 0.384473 V 64.890095 H 70.113548 V 63.25712 h -0.347266 l -0.975651,1.632975 v 0.235644 h 1.021127 v 0.657324 h 0.30179 z m -1.021126,-0.235644 c 0.198437,-0.330729 0.740006,-1.244369 0.740006,-1.463477 v 1.463477 z m 0,0"
       style="fill:#000000;fill-opacity:1;fill-rule:nonzero;stroke:none;stroke-width:0.352778"
       aria-label="1234" />
    <path
       id="path20"
       d="m 53.58019,55.060206 -0.475423,0.475423 v 0.248047 h 1.533757 v -0.272852 h -0.698666 c -0.04961,0 -0.09508,0.0041 -0.14056,0.0041 h -0.417545 c 0.119889,-0.107487 0.413411,-0.396875 0.5333,-0.508496 0.07442,-0.07028 0.268718,-0.23151 0.343132,-0.30179 0.173633,-0.173633 0.380339,-0.376204 0.380339,-0.7028 0,-0.44235 -0.310059,-0.826822 -0.818555,-0.826822 -0.438216,0 -0.657324,0.297656 -0.748275,0.628385 0.04547,0.06615 0.06615,0.09095 0.07441,0.103353 0.0083,0.0083 0.04548,0.05788 0.08268,0.111621 0.07855,-0.297656 0.186036,-0.599447 0.537435,-0.599447 0.359668,0 0.558106,0.289388 0.558106,0.591179 0,0.326595 -0.219108,0.545703 -0.446485,0.777213 z m 0,0"
       style="fill:#000000;fill-opacity:1;fill-rule:nonzero;stroke:none;stroke-width:0.352778"
       aria-label="2" />
    <path
       id="path21"
       d="m 55.98418,53.17505 h -0.07441 c -0.227377,0.235644 -0.545703,0.243912 -0.731739,0.252181 v 0.223242 c 0.128158,-0.0041 0.310059,-0.0124 0.504362,-0.09095 v 2.000912 h -0.483691 v 0.223242 h 1.269173 V 55.560434 H 55.98418 Z m 1.13068,0.628385 c 0.111621,-0.268717 0.359668,-0.405143 0.595313,-0.405143 0.198437,0 0.388606,0.115755 0.388606,0.359668 0,0.235644 -0.157096,0.463021 -0.392741,0.516764 -0.0248,0.0041 -0.02894,0.0041 -0.305924,0.02894 v 0.23151 H 57.6771 c 0.413411,0 0.500227,0.359668 0.500227,0.549837 0,0.301791 -0.177766,0.549838 -0.475423,0.549838 -0.264583,0 -0.570507,-0.136426 -0.740006,-0.396875 l -0.04134,0.23151 c 0.281119,0.359668 0.636653,0.396875 0.789616,0.396875 0.471289,0 0.806152,-0.37207 0.806152,-0.777214 0,-0.347265 -0.268718,-0.587044 -0.529167,-0.669726 0.293522,-0.157096 0.425814,-0.417546 0.425814,-0.661458 0,-0.33073 -0.318327,-0.582911 -0.698665,-0.582911 -0.297657,0 -0.578776,0.152963 -0.740007,0.42168 z m 0,0"
       style="fill:#000000;fill-opacity:1;fill-rule:nonzero;stroke:none;stroke-width:0.352778"
       aria-label="13" />
    <path
       id="path22"
       d="m 60.113125,55.126352 h 0.384472 v -0.235645 h -0.384472 v -1.632975 h -0.347266 l -0.975651,1.632975 v 0.235645 h 1.021126 v 0.657324 h 0.301791 z m -1.021127,-0.235645 c 0.198438,-0.330729 0.740007,-1.244368 0.740007,-1.463476 v 1.463476 z m 0,0"
       style="fill:#000000;fill-opacity:1;fill-rule:nonzero;stroke:none;stroke-width:0.352778"
       aria-label="4" />
    <path
       id="path23"
       d="m 64.060171,53.17505 h -0.07441 c -0.227376,0.235644 -0.545703,0.243912 -0.731738,0.252181 v 0.223242 c 0.128157,-0.0041 0.310058,-0.0124 0.504362,-0.09095 v 2.000912 h -0.483692 v 0.223242 h 1.269173 v -0.223242 h -0.483691 z m 1.13068,0.628385 c 0.111621,-0.268717 0.359668,-0.405143 0.595313,-0.405143 0.198437,0 0.388606,0.115755 0.388606,0.359668 0,0.235644 -0.157096,0.463021 -0.39274,0.516764 -0.02481,0.0041 -0.02894,0.0041 -0.305925,0.02894 v 0.23151 h 0.276986 c 0.413411,0 0.500228,0.359668 0.500228,0.549837 0,0.301791 -0.177767,0.549838 -0.475424,0.549838 -0.264583,0 -0.570507,-0.136426 -0.740006,-0.396875 l -0.04134,0.23151 c 0.28112,0.359668 0.636654,0.396875 0.789616,0.396875 0.471289,0 0.806152,-0.37207 0.806152,-0.777214 0,-0.347265 -0.268717,-0.587044 -0.529167,-0.669726 0.293523,-0.157096 0.425814,-0.417546 0.425814,-0.661458 0,-0.33073 -0.318327,-0.582911 -0.698665,-0.582911 -0.297656,0 -0.578776,0.152963 -0.740007,0.42168 z m 2.23759,1.256771 -0.475424,0.475423 v 0.248047 h 1.533757 v -0.272852 h -0.698665 c -0.04961,0 -0.09509,0.0041 -0.14056,0.0041 h -0.417546 c 0.119889,-0.107487 0.413411,-0.396875 0.533301,-0.508496 0.07441,-0.07028 0.268717,-0.23151 0.343131,-0.30179 0.173633,-0.173633 0.380339,-0.376204 0.380339,-0.7028 0,-0.44235 -0.310059,-0.826822 -0.818555,-0.826822 -0.438216,0 -0.657324,0.297656 -0.748274,0.628385 0.04547,0.06615 0.06615,0.09095 0.07441,0.103353 0.0083,0.0083 0.04547,0.05788 0.08268,0.111621 0.07855,-0.297656 0.186035,-0.599447 0.537435,-0.599447 0.359668,0 0.558105,0.289388 0.558105,0.591179 0,0.326595 -0.219108,0.545703 -0.446484,0.777213 z m 2.685107,0.06615 h 0.384473 v -0.235645 h -0.384473 v -1.632975 h -0.347266 l -0.975651,1.632975 v 0.235645 h 1.021127 v 0.657324 h 0.30179 z m -1.021126,-0.235645 c 0.198437,-0.330729 0.740006,-1.244368 0.740006,-1.463476 v 1.463476 z m 0,0"
       style="fill:#000000;fill-opacity:1;fill-rule:nonzero;stroke:none;stroke-width:0.352778"
       aria-label="1324" />
    <path
       id="path24"
       d="m 74.059561,53.17505 h -0.07441 c -0.227377,0.235644 -0.545703,0.243912 -0.731739,0.252181 v 0.223242 c 0.128158,-0.0041 0.310059,-0.0124 0.504362,-0.09095 v 2.000912 h -0.483691 v 0.223242 h 1.269173 v -0.223242 h -0.483691 z m 1.444873,1.885156 -0.475423,0.475423 v 0.248047 h 1.533756 v -0.272852 h -0.698665 c -0.04961,0 -0.09508,0.0041 -0.14056,0.0041 h -0.417546 c 0.11989,-0.107487 0.413412,-0.396875 0.533301,-0.508496 0.07441,-0.07028 0.268717,-0.23151 0.343131,-0.30179 0.173633,-0.173633 0.380339,-0.376205 0.380339,-0.7028 0,-0.44235 -0.310059,-0.826822 -0.818555,-0.826822 -0.438216,0 -0.657324,0.297656 -0.748274,0.628385 0.04548,0.06615 0.06615,0.09095 0.07441,0.103353 0.0083,0.0083 0.04547,0.05788 0.08268,0.111621 0.07855,-0.297656 0.186035,-0.599447 0.537435,-0.599447 0.359668,0 0.558105,0.289388 0.558105,0.591179 0,0.326595 -0.219108,0.545703 -0.446484,0.777213 z m 2.685107,0.06615 h 0.384473 v -0.235645 h -0.384473 v -1.632975 h -0.347265 l -0.975651,1.632975 v 0.235645 h 1.021126 v 0.657324 h 0.30179 z m -1.021126,-0.235645 c 0.198437,-0.330729 0.740006,-1.244368 0.740006,-1.463476 v 1.463476 z m 1.870687,-1.087272 c 0.111621,-0.268717 0.359667,-0.405143 0.595312,-0.405143 0.198438,0 0.388607,0.115755 0.388607,0.359668 0,0.235644 -0.157097,0.463021 -0.392741,0.516764 -0.0248,0.0041 -0.02894,0.0041 -0.305925,0.02894 v 0.23151 h 0.276986 c 0.413412,0 0.500228,0.359668 0.500228,0.549837 0,0.301791 -0.177767,0.549838 -0.475423,0.549838 -0.264584,0 -0.570508,-0.136426 -0.740007,-0.396875 l -0.04134,0.23151 c 0.28112,0.359668 0.636654,0.396875 0.789616,0.396875 0.471289,0 0.806152,-0.37207 0.806152,-0.777214 0,-0.347265 -0.268717,-0.587044 -0.529166,-0.669726 0.293522,-0.157096 0.425813,-0.417546 0.425813,-0.661458 0,-0.33073 -0.318327,-0.582911 -0.698665,-0.582911 -0.297656,0 -0.578776,0.152963 -0.740006,0.42168 z m 0,0"
       style="fill:#000000;fill-opacity:1;fill-rule:nonzero;stroke:none;stroke-width:0.352778"
       aria-label="1243" />
    <path
       id="path25"
       d="m 43.580802,45.059782 -0.475423,0.475423 v 0.248047 h 1.533757 V 45.510401 H 43.94047 c -0.04961,0 -0.09508,0.0041 -0.14056,0.0041 h -0.417545 c 0.119889,-0.107487 0.413411,-0.396875 0.533301,-0.508496 0.07441,-0.07028 0.268717,-0.231511 0.343131,-0.301791 0.173633,-0.173632 0.380339,-0.376204 0.380339,-0.702799 0,-0.44235 -0.310059,-0.826823 -0.818555,-0.826823 -0.438216,0 -0.657324,0.297656 -0.748275,0.628385 0.04548,0.06615 0.06615,0.09095 0.07441,0.103353 0.0083,0.0083 0.04548,0.05788 0.08268,0.111621 0.07855,-0.297656 0.186035,-0.599446 0.537435,-0.599446 0.359668,0 0.558105,0.289388 0.558105,0.591178 0,0.326595 -0.219108,0.545703 -0.446484,0.777214 z m 0,0"
       style="fill:#000000;fill-opacity:1;fill-rule:nonzero;stroke:none;stroke-width:0.352778"
       aria-label="2" />
    <path
       id="path26"
       d="m 45.190006,43.803011 c 0.111621,-0.268717 0.359667,-0.405143 0.595312,-0.405143 0.198437,0 0.388607,0.115755 0.388607,0.359668 0,0.235645 -0.157097,0.463021 -0.392741,0.516764 -0.02481,0.0041 -0.02894,0.0041 -0.305925,0.02894 v 0.231511 h 0.276986 c 0.413412,0 0.500228,0.359668 0.500228,0.549837 0,0.30179 -0.177767,0.549837 -0.475423,0.549837 -0.264584,0 -0.570508,-0.136426 -0.740007,-0.396875 l -0.04134,0.23151 c 0.28112,0.359668 0.636654,0.396875 0.789616,0.396875 0.471289,0 0.806152,-0.37207 0.806152,-0.777213 0,-0.347266 -0.268717,-0.587044 -0.529166,-0.669727 0.293522,-0.157096 0.425813,-0.417545 0.425813,-0.661458 0,-0.330729 -0.318326,-0.58291 -0.698665,-0.58291 -0.297656,0 -0.578776,0.152962 -0.740006,0.42168 z m 2.71818,-0.628385 h -0.07441 c -0.227377,0.235645 -0.545703,0.243913 -0.731739,0.252181 v 0.223242 c 0.128158,-0.0041 0.310059,-0.0124 0.504362,-0.09095 v 2.000911 h -0.483691 v 0.223242 h 1.269173 V 45.56001 H 47.90819 Z m 0,0"
       style="fill:#000000;fill-opacity:1;fill-rule:nonzero;stroke:none;stroke-width:0.352778"
       aria-label="31" />
    <path
       id="path27"
       d="m 50.113737,45.125928 h 0.384473 v -0.235644 h -0.384473 v -1.632976 h -0.347266 l -0.975651,1.632976 v 0.235644 h 1.021127 v 0.657324 h 0.30179 z m -1.021126,-0.235644 c 0.198437,-0.33073 0.740006,-1.244369 0.740006,-1.463477 v 1.463477 z m 0,0"
       style="fill:#000000;fill-opacity:1;fill-rule:nonzero;stroke:none;stroke-width:0.352778"
       aria-label="4" />
    <path
       id="path28"
       d="m 53.265998,43.803011 c 0.111621,-0.268717 0.359667,-0.405143 0.595312,-0.405143 0.198437,0 0.388607,0.115755 0.388607,0.359668 0,0.235645 -0.157097,0.463021 -0.392741,0.516764 -0.02481,0.0041 -0.02894,0.0041 -0.305925,0.02894 v 0.231511 h 0.276986 c 0.413412,0 0.500228,0.359668 0.500228,0.549837 0,0.30179 -0.177767,0.549837 -0.475423,0.549837 -0.264584,0 -0.570508,-0.136426 -0.740007,-0.396875 l -0.04134,0.23151 c 0.28112,0.359668 0.636654,0.396875 0.789616,0.396875 0.471289,0 0.806152,-0.37207 0.806152,-0.777213 0,-0.347266 -0.268717,-0.587044 -0.529166,-0.669727 0.293522,-0.157096 0.425813,-0.417545 0.425813,-0.661458 0,-0.330729 -0.318326,-0.58291 -0.698665,-0.58291 -0.297656,0 -0.578776,0.152962 -0.740006,0.42168 z m 2.71818,-0.628385 h -0.07441 c -0.227377,0.235645 -0.545703,0.243913 -0.731739,0.252181 v 0.223242 c 0.128158,-0.0041 0.310059,-0.0124 0.504362,-0.09095 V 45.56001 H 55.1987 v 0.223242 h 1.269173 V 45.56001 h -0.483691 z m 1.444873,1.885156 -0.475423,0.475423 v 0.248047 h 1.533756 v -0.272851 h -0.698665 c -0.04961,0 -0.09508,0.0041 -0.14056,0.0041 h -0.417546 c 0.11989,-0.107487 0.413412,-0.396875 0.533301,-0.508496 0.07441,-0.07028 0.268717,-0.231511 0.343132,-0.301791 0.173632,-0.173632 0.380338,-0.376204 0.380338,-0.702799 0,-0.44235 -0.310058,-0.826823 -0.818555,-0.826823 -0.438216,0 -0.657324,0.297656 -0.748274,0.628385 0.04548,0.06615 0.06615,0.09095 0.07441,0.103353 0.0083,0.0083 0.04548,0.05788 0.08268,0.111621 0.07855,-0.297656 0.186035,-0.599446 0.537435,-0.599446 0.359668,0 0.558105,0.289388 0.558105,0.591178 0,0.326595 -0.219108,0.545703 -0.446484,0.777214 z m 2.684073,0.06615 h 0.384473 v -0.235644 h -0.384473 v -1.632976 h -0.347265 l -0.975651,1.632976 v 0.235644 h 1.021126 v 0.657324 h 0.30179 z m -1.021126,-0.235644 c 0.198438,-0.33073 0.740007,-1.244369 0.740007,-1.463477 v 1.463477 z m 0,0"
       style="fill:#000000;fill-opacity:1;fill-rule:nonzero;stroke:none;stroke-width:0.352778"
       aria-label="3124" />
    <path
       id="path29"
       d="m 63.580614,45.059782 -0.475423,0.475423 v 0.248047 h 1.533756 v -0.272851 h -0.698665 c -0.04961,0 -0.09509,0.0041 -0.14056,0.0041 h -0.417546 c 0.11989,-0.107487 0.413412,-0.396875 0.533301,-0.508496 0.07441,-0.07028 0.268717,-0.231511 0.343131,-0.301791 0.173633,-0.173632 0.380339,-0.376204 0.380339,-0.702799 0,-0.44235 -0.310059,-0.826823 -0.818555,-0.826823 -0.438216,0 -0.657324,0.297656 -0.748274,0.628385 0.04547,0.06615 0.06614,0.09095 0.07441,0.103353 0.0083,0.0083 0.04547,0.05788 0.08268,0.111621 0.07855,-0.297656 0.186035,-0.599446 0.537435,-0.599446 0.359668,0 0.558105,0.289388 0.558105,0.591178 0,0.326595 -0.219108,0.545703 -0.446484,0.777214 z m 2.403987,-1.885156 h -0.07441 c -0.227376,0.235645 -0.545703,0.243913 -0.731738,0.252181 v 0.223242 c 0.128157,-0.0041 0.310058,-0.0124 0.504362,-0.09095 v 2.000911 h -0.483692 v 0.223242 h 1.269174 V 45.56001 h -0.483692 z m 2.204517,1.951302 h 0.384472 v -0.235644 h -0.384472 v -1.632976 h -0.347266 l -0.975651,1.632976 v 0.235644 h 1.021127 v 0.657324 h 0.30179 z m -1.021127,-0.235644 c 0.198438,-0.33073 0.740007,-1.244369 0.740007,-1.463477 v 1.463477 z m 1.870687,-1.087273 c 0.111621,-0.268717 0.359668,-0.405143 0.595313,-0.405143 0.198437,0 0.388606,0.115755 0.388606,0.359668 0,0.235645 -0.157096,0.463021 -0.39274,0.516764 -0.0248,0.0041 -0.02894,0.0041 -0.305925,0.02894 v 0.231511 h 0.276986 c 0.413411,0 0.500228,0.359668 0.500228,0.549837 0,0.30179 -0.177767,0.549837 -0.475424,0.549837 -0.264583,0 -0.570507,-0.136426 -0.740006,-0.396875 l -0.04134,0.23151 c 0.28112,0.359668 0.636654,0.396875 0.789616,0.396875 0.471289,0 0.806152,-0.37207 0.806152,-0.777213 0,-0.347266 -0.268717,-0.587044 -0.529167,-0.669727 0.293522,-0.157096 0.425814,-0.417545 0.425814,-0.661458 0,-0.330729 -0.318327,-0.58291 -0.698665,-0.58291 -0.297657,0 -0.578776,0.152962 -0.740007,0.42168 z m 0,0"
       style="fill:#000000;fill-opacity:1;fill-rule:nonzero;stroke:none;stroke-width:0.352778"
       aria-label="2143" />
    <path
       id="path30"
       d="m 74.059561,43.174626 h -0.07441 c -0.227377,0.235645 -0.545703,0.243913 -0.731739,0.252181 v 0.223242 c 0.128158,-0.0041 0.310059,-0.0124 0.504362,-0.09095 v 2.000911 h -0.483691 v 0.223242 h 1.269173 V 45.56001 h -0.483691 z m 1.13068,0.628385 c 0.111621,-0.268717 0.359668,-0.405143 0.595313,-0.405143 0.198437,0 0.388606,0.115755 0.388606,0.359668 0,0.235645 -0.157096,0.463021 -0.392741,0.516764 -0.0248,0.0041 -0.02894,0.0041 -0.305924,0.02894 v 0.231511 h 0.276986 c 0.413411,0 0.500227,0.359668 0.500227,0.549837 0,0.30179 -0.177766,0.549837 -0.475423,0.549837 -0.264583,0 -0.570508,-0.136426 -0.740006,-0.396875 l -0.04134,0.23151 c 0.281119,0.359668 0.636653,0.396875 0.789616,0.396875 0.471289,0 0.806152,-0.37207 0.806152,-0.777213 0,-0.347266 -0.268718,-0.587044 -0.529167,-0.669727 0.293522,-0.157096 0.425814,-0.417545 0.425814,-0.661458 0,-0.330729 -0.318327,-0.58291 -0.698665,-0.58291 -0.297657,0 -0.578776,0.152962 -0.740007,0.42168 z m 2.9993,1.322917 h 0.384473 v -0.235644 h -0.384473 v -1.632976 h -0.347265 l -0.975651,1.632976 v 0.235644 h 1.021126 v 0.657324 h 0.30179 z m -1.021126,-0.235644 c 0.198437,-0.33073 0.740006,-1.244369 0.740006,-1.463477 v 1.463477 z m 2.184879,0.169498 -0.475423,0.475423 v 0.248047 h 1.533757 v -0.272851 h -0.698666 c -0.04961,0 -0.09508,0.0041 -0.14056,0.0041 h -0.417545 c 0.119889,-0.107487 0.413411,-0.396875 0.5333,-0.508496 0.07442,-0.07028 0.268718,-0.231511 0.343132,-0.301791 0.173633,-0.173632 0.380339,-0.376204 0.380339,-0.702799 0,-0.44235 -0.310059,-0.826823 -0.818555,-0.826823 -0.438216,0 -0.657324,0.297656 -0.748275,0.628385 0.04547,0.06615 0.06615,0.09095 0.07441,0.103353 0.0083,0.0083 0.04547,0.05788 0.08268,0.111621 0.07855,-0.297656 0.186036,-0.599446 0.537435,-0.599446 0.359668,0 0.558106,0.289388 0.558106,0.591178 0,0.326595 -0.219108,0.545703 -0.446484,0.777214 z m 0,0"
       style="fill:#000000;fill-opacity:1;fill-rule:nonzero;stroke:none;stroke-width:0.352778"
       aria-label="1342" />
    <path
       id="path31"
       d="m 84.059984,43.174626 h -0.07441 c -0.227376,0.235645 -0.545703,0.243913 -0.731738,0.252181 v 0.223242 c 0.128157,-0.0041 0.310059,-0.0124 0.504362,-0.09095 v 2.000911 h -0.483691 v 0.223242 H 84.54368 V 45.56001 h -0.483692 z m 2.20555,1.951302 h 0.384473 v -0.235644 h -0.384473 v -1.632976 h -0.347265 l -0.975651,1.632976 v 0.235644 h 1.021126 v 0.657324 h 0.30179 z m -1.021126,-0.235644 c 0.198438,-0.33073 0.740006,-1.244369 0.740006,-1.463477 v 1.463477 z m 2.18488,0.169498 -0.475424,0.475423 v 0.248047 h 1.533757 v -0.272851 h -0.698666 c -0.04961,0 -0.09508,0.0041 -0.140559,0.0041 H 87.23085 c 0.119889,-0.107487 0.413411,-0.396875 0.533301,-0.508496 0.07441,-0.07028 0.268717,-0.231511 0.343131,-0.301791 0.173633,-0.173632 0.380339,-0.376204 0.380339,-0.702799 0,-0.44235 -0.310059,-0.826823 -0.818555,-0.826823 -0.438216,0 -0.657324,0.297656 -0.748274,0.628385 0.04547,0.06615 0.06614,0.09095 0.07441,0.103353 0.0083,0.0083 0.04548,0.05788 0.08268,0.111621 0.07855,-0.297656 0.186035,-0.599446 0.537435,-0.599446 0.359668,0 0.558105,0.289388 0.558105,0.591178 0,0.326595 -0.219108,0.545703 -0.446484,0.777214 z m 1.609203,-1.256771 c 0.111622,-0.268717 0.359669,-0.405143 0.595313,-0.405143 0.198437,0 0.388607,0.115755 0.388607,0.359668 0,0.235645 -0.157097,0.463021 -0.392741,0.516764 -0.0248,0.0041 -0.02894,0.0041 -0.305925,0.02894 v 0.231511 h 0.276986 c 0.413411,0 0.500228,0.359668 0.500228,0.549837 0,0.30179 -0.177767,0.549837 -0.475423,0.549837 -0.264584,0 -0.570508,-0.136426 -0.740007,-0.396875 l -0.04134,0.23151 c 0.28112,0.359668 0.636654,0.396875 0.789616,0.396875 0.471289,0 0.806152,-0.37207 0.806152,-0.777213 0,-0.347266 -0.268717,-0.587044 -0.529166,-0.669727 0.293522,-0.157096 0.425813,-0.417545 0.425813,-0.661458 0,-0.330729 -0.318326,-0.58291 -0.698665,-0.58291 -0.297656,0 -0.578776,0.152962 -0.740006,0.42168 z m 0,0"
       style="fill:#000000;fill-opacity:1;fill-rule:nonzero;stroke:none;stroke-width:0.352778"
       aria-label="1423" />
    <path
       id="path32"
       d="m 38.266397,33.803621 c 0.111621,-0.268718 0.359668,-0.405144 0.595312,-0.405144 0.198438,0 0.388607,0.115756 0.388607,0.359668 0,0.235645 -0.157097,0.463021 -0.392741,0.516765 -0.02481,0.0041 -0.02894,0.0041 -0.305925,0.02894 v 0.231511 h 0.276986 c 0.413412,0 0.500228,0.359668 0.500228,0.549837 0,0.30179 -0.177767,0.549837 -0.475423,0.549837 -0.264583,0 -0.570508,-0.136426 -0.740007,-0.396875 l -0.04134,0.231511 c 0.28112,0.359668 0.636654,0.396875 0.789616,0.396875 0.471289,0 0.806152,-0.372071 0.806152,-0.777214 0,-0.347265 -0.268717,-0.587044 -0.529166,-0.669726 0.293522,-0.157097 0.425814,-0.417546 0.425814,-0.661459 0,-0.330729 -0.318327,-0.58291 -0.698666,-0.58291 -0.297656,0 -0.578776,0.152962 -0.740006,0.42168 z m 0,0"
       style="fill:#000000;fill-opacity:1;fill-rule:nonzero;stroke:none;stroke-width:0.352778"
       aria-label="3" />
    <path
       id="path33"
       d="m 40.505022,35.060391 -0.475424,0.475424 v 0.248046 h 1.533757 V 35.51101 H 40.86469 c -0.04961,0 -0.09509,0.0041 -0.14056,0.0041 h -0.417546 c 0.119889,-0.107487 0.413412,-0.396875 0.533301,-0.508496 0.07441,-0.07028 0.268717,-0.23151 0.343131,-0.30179 0.173633,-0.173633 0.380339,-0.376205 0.380339,-0.7028 0,-0.44235 -0.310059,-0.826823 -0.818555,-0.826823 -0.438216,0 -0.657324,0.297657 -0.748274,0.628386 0.04547,0.06615 0.06614,0.09095 0.07441,0.103353 0.0083,0.0083 0.04548,0.05788 0.08268,0.111621 0.07855,-0.297657 0.186035,-0.599447 0.537435,-0.599447 0.359668,0 0.558105,0.289388 0.558105,0.591178 0,0.326595 -0.219108,0.545703 -0.446484,0.777214 z m 0,0"
       style="fill:#000000;fill-opacity:1;fill-rule:nonzero;stroke:none;stroke-width:0.352778"
       aria-label="2" />
    <path
       id="path34"
       d="m 42.909008,33.175235 h -0.07441 c -0.227376,0.235645 -0.545703,0.243913 -0.731738,0.252181 v 0.223242 c 0.128157,-0.0041 0.310058,-0.0124 0.504362,-0.09095 v 2.000911 H 42.12353 v 0.223242 h 1.26917 v -0.223242 h -0.483692 z m 0,0"
       style="fill:#000000;fill-opacity:1;fill-rule:nonzero;stroke:none;stroke-width:0.352778"
       aria-label="1" />
    <path
       id="path35"
       d="m 45.113524,35.126537 h 0.384472 v -0.235644 h -0.384472 v -1.632975 h -0.347266 l -0.975651,1.632975 v 0.235644 h 1.021126 v 0.657324 h 0.301791 z m -1.021126,-0.235644 c 0.198437,-0.330729 0.740006,-1.244369 0.740006,-1.463477 v 1.463477 z m 0,0"
       style="fill:#000000;fill-opacity:1;fill-rule:nonzero;stroke:none;stroke-width:0.352778"
       aria-label="4" />
    <path
       id="path36"
       d="m 48.57998,35.060391 -0.475423,0.475424 v 0.248046 h 1.533756 V 35.51101 h -0.698665 c -0.04961,0 -0.09508,0.0041 -0.14056,0.0041 h -0.417545 c 0.119889,-0.107487 0.413411,-0.396875 0.5333,-0.508496 0.07441,-0.07028 0.268718,-0.23151 0.343132,-0.30179 0.173633,-0.173633 0.380338,-0.376205 0.380338,-0.7028 0,-0.44235 -0.310058,-0.826823 -0.818554,-0.826823 -0.438216,0 -0.657324,0.297657 -0.748275,0.628386 0.04548,0.06615 0.06615,0.09095 0.07441,0.103353 0.0083,0.0083 0.04547,0.05788 0.08268,0.111621 0.07855,-0.297657 0.186035,-0.599447 0.537435,-0.599447 0.359668,0 0.558106,0.289388 0.558106,0.591178 0,0.326595 -0.219108,0.545703 -0.446485,0.777214 z m 0,0"
       style="fill:#000000;fill-opacity:1;fill-rule:nonzero;stroke:none;stroke-width:0.352778"
       aria-label="2" />
    <path
       id="path37"
       d="m 50.190217,33.803621 c 0.111621,-0.268718 0.359668,-0.405144 0.595312,-0.405144 0.198438,0 0.388607,0.115756 0.388607,0.359668 0,0.235645 -0.157096,0.463021 -0.392741,0.516765 -0.0248,0.0041 -0.02894,0.0041 -0.305924,0.02894 v 0.231511 h 0.276985 c 0.413412,0 0.500228,0.359668 0.500228,0.549837 0,0.30179 -0.177767,0.549837 -0.475423,0.549837 -0.264583,0 -0.570508,-0.136426 -0.740007,-0.396875 l -0.04134,0.231511 c 0.28112,0.359668 0.636654,0.396875 0.789616,0.396875 0.471289,0 0.806152,-0.372071 0.806152,-0.777214 0,-0.347265 -0.268717,-0.587044 -0.529166,-0.669726 0.293522,-0.157097 0.425814,-0.417546 0.425814,-0.661459 0,-0.330729 -0.318327,-0.58291 -0.698666,-0.58291 -0.297656,0 -0.578776,0.152962 -0.740006,0.42168 z m 0,0"
       style="fill:#000000;fill-opacity:1;fill-rule:nonzero;stroke:none;stroke-width:0.352778"
       aria-label="3" />
    <path
       id="path38"
       d="m 53.189519,35.126537 h 0.384472 v -0.235644 h -0.384472 v -1.632975 h -0.347266 l -0.975651,1.632975 v 0.235644 h 1.021126 v 0.657324 h 0.301791 z m -1.021127,-0.235644 c 0.198438,-0.330729 0.740007,-1.244369 0.740007,-1.463477 v 1.463477 z m 0,0"
       style="fill:#000000;fill-opacity:1;fill-rule:nonzero;stroke:none;stroke-width:0.352778"
       aria-label="4" />
    <path
       id="path39"
       d="m 54.832828,33.175235 h -0.07441 c -0.227376,0.235645 -0.545703,0.243913 -0.731738,0.252181 v 0.223242 c 0.128158,-0.0041 0.310059,-0.0124 0.504362,-0.09095 v 2.000911 h -0.483691 v 0.223242 h 1.269173 v -0.223242 h -0.483692 z m 0,0"
       style="fill:#000000;fill-opacity:1;fill-rule:nonzero;stroke:none;stroke-width:0.352778"
       aria-label="1" />
    <path
       id="path40"
       d="m 58.26621,33.803621 c 0.111621,-0.268718 0.359668,-0.405144 0.595312,-0.405144 0.198438,0 0.388607,0.115756 0.388607,0.359668 0,0.235645 -0.157096,0.463021 -0.392741,0.516765 -0.0248,0.0041 -0.02894,0.0041 -0.305924,0.02894 v 0.231511 h 0.276985 c 0.413412,0 0.500228,0.359668 0.500228,0.549837 0,0.30179 -0.177767,0.549837 -0.475423,0.549837 -0.264583,0 -0.570508,-0.136426 -0.740006,-0.396875 l -0.04134,0.231511 c 0.281119,0.359668 0.636653,0.396875 0.789615,0.396875 0.471289,0 0.806153,-0.372071 0.806153,-0.777214 0,-0.347265 -0.268718,-0.587044 -0.529167,-0.669726 0.293522,-0.157097 0.425814,-0.417546 0.425814,-0.661459 0,-0.330729 -0.318327,-0.58291 -0.698666,-0.58291 -0.297656,0 -0.578776,0.152962 -0.740006,0.42168 z m 2.71818,-0.628386 h -0.07441 c -0.227376,0.235645 -0.545703,0.243913 -0.731738,0.252181 v 0.223242 c 0.128157,-0.0041 0.310058,-0.0124 0.504362,-0.09095 v 2.000911 h -0.483692 v 0.223242 h 1.269174 V 35.560619 H 60.98439 Z m 2.20555,1.951302 h 0.384473 V 34.890893 H 63.18994 v -1.632975 h -0.347265 l -0.975651,1.632975 v 0.235644 h 1.021126 v 0.657324 h 0.30179 z m -1.021126,-0.235644 c 0.198437,-0.330729 0.740006,-1.244369 0.740006,-1.463477 v 1.463477 z m 2.184879,0.169498 -0.475423,0.475424 v 0.248046 h 1.533757 V 35.51101 h -0.698666 c -0.04961,0 -0.09508,0.0041 -0.14056,0.0041 h -0.417545 c 0.119889,-0.107487 0.413411,-0.396875 0.533301,-0.508496 0.07441,-0.07028 0.268717,-0.23151 0.343131,-0.30179 0.173633,-0.173633 0.380339,-0.376205 0.380339,-0.7028 0,-0.44235 -0.310059,-0.826823 -0.818555,-0.826823 -0.438216,0 -0.657324,0.297657 -0.748275,0.628386 0.04548,0.06615 0.06615,0.09095 0.07441,0.103353 0.0083,0.0083 0.04548,0.05788 0.08268,0.111621 0.07855,-0.297657 0.186036,-0.599447 0.537436,-0.599447 0.359667,0 0.558105,0.289388 0.558105,0.591178 0,0.326595 -0.219108,0.545703 -0.446484,0.777214 z m 0,0"
       style="fill:#000000;fill-opacity:1;fill-rule:nonzero;stroke:none;stroke-width:0.352778"
       aria-label="3142" />
    <path
       id="path41"
       d="m 68.580827,35.060391 -0.475423,0.475424 v 0.248046 H 69.63916 V 35.51101 h -0.698665 c -0.04961,0 -0.09508,0.0041 -0.14056,0.0041 h -0.417546 c 0.11989,-0.107487 0.413412,-0.396875 0.533301,-0.508496 0.07441,-0.07028 0.268718,-0.23151 0.343132,-0.30179 0.173632,-0.173633 0.380338,-0.376205 0.380338,-0.7028 0,-0.44235 -0.310058,-0.826823 -0.818555,-0.826823 -0.438216,0 -0.657324,0.297657 -0.748274,0.628386 0.04547,0.06615 0.06615,0.09095 0.07441,0.103353 0.0083,0.0083 0.04548,0.05788 0.08268,0.111621 0.07855,-0.297657 0.186035,-0.599447 0.537435,-0.599447 0.359668,0 0.558105,0.289388 0.558105,0.591178 0,0.326595 -0.219108,0.545703 -0.446484,0.777214 z m 2.684074,0.06615 h 0.384472 v -0.235644 h -0.384472 v -1.632975 h -0.347266 l -0.975651,1.632975 v 0.235644 h 1.021126 v 0.657324 h 0.301791 z m -1.021127,-0.235644 c 0.198438,-0.330729 0.740007,-1.244369 0.740007,-1.463477 v 1.463477 z m 2.664437,-1.715658 h -0.07441 c -0.227376,0.235645 -0.545703,0.243913 -0.731738,0.252181 v 0.223242 c 0.128157,-0.0041 0.310058,-0.0124 0.504362,-0.09095 v 2.000911 h -0.483692 v 0.223242 h 1.269173 v -0.223242 h -0.483691 z m 1.130681,0.628386 c 0.111621,-0.268718 0.359667,-0.405144 0.595312,-0.405144 0.198437,0 0.388607,0.115756 0.388607,0.359668 0,0.235645 -0.157097,0.463021 -0.392741,0.516765 -0.0248,0.0041 -0.02894,0.0041 -0.305925,0.02894 v 0.231511 h 0.276986 c 0.413411,0 0.500228,0.359668 0.500228,0.549837 0,0.30179 -0.177767,0.549837 -0.475423,0.549837 -0.264584,0 -0.570508,-0.136426 -0.740007,-0.396875 l -0.04134,0.231511 c 0.28112,0.359668 0.636654,0.396875 0.789616,0.396875 0.471289,0 0.806152,-0.372071 0.806152,-0.777214 0,-0.347265 -0.268717,-0.587044 -0.529166,-0.669726 0.293522,-0.157097 0.425813,-0.417546 0.425813,-0.661459 0,-0.330729 -0.318327,-0.58291 -0.698665,-0.58291 -0.297656,0 -0.578776,0.152962 -0.740007,0.42168 z m 0,0"
       style="fill:#000000;fill-opacity:1;fill-rule:nonzero;stroke:none;stroke-width:0.352778"
       aria-label="2413" />
    <path
       id="path42"
       d="m 79.340893,35.126537 h 0.384473 v -0.235644 h -0.384473 v -1.632975 h -0.347266 l -0.975651,1.632975 v 0.235644 h 1.021127 v 0.657324 h 0.30179 z m -1.021126,-0.235644 c 0.198437,-0.330729 0.740006,-1.244369 0.740006,-1.463477 v 1.463477 z m 2.664436,-1.715658 h -0.07441 c -0.227376,0.235645 -0.545703,0.243913 -0.731738,0.252181 v 0.223242 c 0.128158,-0.0041 0.310059,-0.0124 0.504362,-0.09095 v 2.000911 h -0.483691 v 0.223242 h 1.269173 v -0.223242 h -0.483692 z m 1.444873,1.885156 -0.475423,0.475424 v 0.248046 H 83.48741 V 35.51101 h -0.698666 c -0.04961,0 -0.09508,0.0041 -0.14056,0.0041 h -0.417545 c 0.119889,-0.107487 0.413411,-0.396875 0.5333,-0.508496 0.07442,-0.07028 0.268718,-0.23151 0.343132,-0.30179 0.173633,-0.173633 0.380339,-0.376205 0.380339,-0.7028 0,-0.44235 -0.310059,-0.826823 -0.818555,-0.826823 -0.438216,0 -0.657324,0.297657 -0.748275,0.628386 0.04548,0.06615 0.06615,0.09095 0.07441,0.103353 0.0083,0.0083 0.04547,0.05788 0.08268,0.111621 0.07855,-0.297657 0.186035,-0.599447 0.537434,-0.599447 0.359669,0 0.558106,0.289388 0.558106,0.591178 0,0.326595 -0.219108,0.545703 -0.446484,0.777214 z m 1.610238,-1.25677 c 0.111621,-0.268718 0.359668,-0.405144 0.595312,-0.405144 0.198438,0 0.388607,0.115756 0.388607,0.359668 0,0.235645 -0.157096,0.463021 -0.392741,0.516765 -0.0248,0.0041 -0.02894,0.0041 -0.305924,0.02894 v 0.231511 h 0.276985 c 0.413412,0 0.500228,0.359668 0.500228,0.549837 0,0.30179 -0.177767,0.549837 -0.475423,0.549837 -0.264583,0 -0.570508,-0.136426 -0.740006,-0.396875 l -0.04134,0.231511 c 0.281119,0.359668 0.636653,0.396875 0.789615,0.396875 0.471289,0 0.806153,-0.372071 0.806153,-0.777214 0,-0.347265 -0.268718,-0.587044 -0.529167,-0.669726 0.293522,-0.157097 0.425814,-0.417546 0.425814,-0.661459 0,-0.330729 -0.318327,-0.58291 -0.698665,-0.58291 -0.297657,0 -0.578776,0.152962 -0.740007,0.42168 z m 0,0"
       style="fill:#000000;fill-opacity:1;fill-rule:nonzero;stroke:none;stroke-width:0.352778"
       aria-label="4123" />
    <path
       id="path43"
       d="m 89.060194,33.175235 h -0.07441 c -0.227376,0.235645 -0.545703,0.243913 -0.731738,0.252181 v 0.223242 c 0.128158,-0.0041 0.310059,-0.0124 0.504362,-0.09095 v 2.000911 h -0.483691 v 0.223242 h 1.269173 v -0.223242 h -0.483692 z m 2.20555,1.951302 h 0.384473 v -0.235644 h -0.384473 v -1.632975 h -0.347265 l -0.975651,1.632975 v 0.235644 h 1.021126 v 0.657324 h 0.30179 z m -1.021126,-0.235644 c 0.198438,-0.330729 0.740007,-1.244369 0.740007,-1.463477 v 1.463477 z m 1.869653,-1.087272 c 0.111622,-0.268718 0.359669,-0.405144 0.595313,-0.405144 0.198437,0 0.388607,0.115756 0.388607,0.359668 0,0.235645 -0.157097,0.463021 -0.392741,0.516765 -0.0248,0.0041 -0.02894,0.0041 -0.305925,0.02894 v 0.231511 h 0.276986 c 0.413411,0 0.500228,0.359668 0.500228,0.549837 0,0.30179 -0.177767,0.549837 -0.475423,0.549837 -0.264584,0 -0.570508,-0.136426 -0.740007,-0.396875 l -0.04134,0.231511 c 0.28112,0.359668 0.636654,0.396875 0.789616,0.396875 0.471289,0 0.806152,-0.372071 0.806152,-0.777214 0,-0.347265 -0.268717,-0.587044 -0.529166,-0.669726 0.293522,-0.157097 0.425813,-0.417546 0.425813,-0.661459 0,-0.330729 -0.318327,-0.58291 -0.698665,-0.58291 -0.297656,0 -0.578776,0.152962 -0.740006,0.42168 z m 2.238623,1.25677 -0.475423,0.475424 v 0.248046 h 1.533756 V 35.51101 h -0.698665 c -0.04961,0 -0.09509,0.0041 -0.14056,0.0041 h -0.417545 c 0.119889,-0.107487 0.413411,-0.396875 0.533301,-0.508496 0.07441,-0.07028 0.268717,-0.23151 0.343131,-0.30179 0.173633,-0.173633 0.380338,-0.376205 0.380338,-0.7028 0,-0.44235 -0.310058,-0.826823 -0.818554,-0.826823 -0.438216,0 -0.657324,0.297657 -0.748275,0.628386 0.04547,0.06615 0.06615,0.09095 0.07441,0.103353 0.0083,0.0083 0.04548,0.05788 0.08268,0.111621 0.07855,-0.297657 0.186035,-0.599447 0.537434,-0.599447 0.359668,0 0.558106,0.289388 0.558106,0.591178 0,0.326595 -0.219108,0.545703 -0.446485,0.777214 z m 0,0"
       style="fill:#000000;fill-opacity:1;fill-rule:nonzero;stroke:none;stroke-width:0.352778"
       aria-label="1432" />
    <path
       id="path44"
       d="m 43.26661,23.803198 c 0.111621,-0.268717 0.359668,-0.405143 0.595312,-0.405143 0.198438,0 0.388607,0.115755 0.388607,0.359668 0,0.235644 -0.157096,0.463021 -0.392741,0.516764 -0.0248,0.0041 -0.02894,0.0041 -0.305924,0.02894 v 0.23151 h 0.276985 c 0.413412,0 0.500228,0.359668 0.500228,0.549838 0,0.30179 -0.177767,0.549837 -0.475423,0.549837 -0.264583,0 -0.570508,-0.136426 -0.740006,-0.396875 l -0.04134,0.23151 c 0.28112,0.359668 0.636654,0.396875 0.789616,0.396875 0.471289,0 0.806153,-0.37207 0.806153,-0.777213 0,-0.347266 -0.268718,-0.587045 -0.529167,-0.669727 0.293522,-0.157096 0.425814,-0.417545 0.425814,-0.661458 0,-0.330729 -0.318327,-0.58291 -0.698666,-0.58291 -0.297656,0 -0.578776,0.152962 -0.740006,0.421679 z m 0,0"
       style="fill:#000000;fill-opacity:1;fill-rule:nonzero;stroke:none;stroke-width:0.352778"
       aria-label="3" />
    <path
       id="path45"
       d="m 45.504198,25.059969 -0.475423,0.475423 v 0.248047 h 1.533757 v -0.272852 h -0.698666 c -0.04961,0 -0.09508,0.0041 -0.14056,0.0041 h -0.417545 c 0.119889,-0.107487 0.413411,-0.396875 0.533301,-0.508497 0.07441,-0.07028 0.268717,-0.23151 0.343131,-0.30179 0.173633,-0.173633 0.380339,-0.376204 0.380339,-0.702799 0,-0.442351 -0.310059,-0.826823 -0.818555,-0.826823 -0.438216,0 -0.657324,0.297656 -0.748275,0.628385 0.04547,0.06615 0.06615,0.09095 0.07441,0.103353 0.0083,0.0083 0.04548,0.05788 0.08268,0.111621 0.07855,-0.297656 0.186035,-0.599446 0.537434,-0.599446 0.359668,0 0.558106,0.289388 0.558106,0.591178 0,0.326595 -0.219108,0.545703 -0.446485,0.777213 z m 2.685108,0.06615 h 0.384472 V 24.89047 H 48.189306 V 23.257495 H 47.84204 l -0.975651,1.632975 v 0.235645 h 1.021126 v 0.657324 h 0.301791 z M 47.168179,24.89047 c 0.198438,-0.330729 0.740007,-1.244368 0.740007,-1.463476 v 1.463476 z m 0,0"
       style="fill:#000000;fill-opacity:1;fill-rule:nonzero;stroke:none;stroke-width:0.352778"
       aria-label="24" />
    <path
       id="path46"
       d="m 49.832617,23.174813 h -0.07441 c -0.227376,0.235644 -0.545703,0.243913 -0.731738,0.252181 v 0.223242 c 0.128157,-0.0041 0.310058,-0.0124 0.504362,-0.09095 v 2.000912 h -0.483692 v 0.223242 h 1.269173 v -0.223242 h -0.483691 z m 0,0"
       style="fill:#000000;fill-opacity:1;fill-rule:nonzero;stroke:none;stroke-width:0.352778"
       aria-label="1" />
    <path
       id="path47"
       d="m 53.58019,25.059969 -0.475423,0.475423 v 0.248047 h 1.533757 v -0.272852 h -0.698666 c -0.04961,0 -0.09508,0.0041 -0.14056,0.0041 h -0.417545 c 0.119889,-0.107487 0.413411,-0.396875 0.5333,-0.508497 0.07442,-0.07028 0.268718,-0.23151 0.343132,-0.30179 0.173633,-0.173633 0.380339,-0.376204 0.380339,-0.702799 0,-0.442351 -0.310059,-0.826823 -0.818555,-0.826823 -0.438216,0 -0.657324,0.297656 -0.748275,0.628385 0.04547,0.06615 0.06615,0.09095 0.07441,0.103353 0.0083,0.0083 0.04548,0.05788 0.08268,0.111621 0.07855,-0.297656 0.186036,-0.599446 0.537435,-0.599446 0.359668,0 0.558106,0.289388 0.558106,0.591178 0,0.326595 -0.219108,0.545703 -0.446485,0.777213 z m 2.685108,0.06615 H 56.64977 V 24.89047 h -0.384472 v -1.632975 h -0.347266 l -0.975651,1.632975 v 0.235645 h 1.021126 v 0.657324 h 0.301791 z M 55.244171,24.89047 c 0.198438,-0.330729 0.740007,-1.244368 0.740007,-1.463476 v 1.463476 z m 0,0"
       style="fill:#000000;fill-opacity:1;fill-rule:nonzero;stroke:none;stroke-width:0.352778"
       aria-label="24" />
    <path
       id="path48"
       d="m 57.114859,23.803198 c 0.111621,-0.268717 0.359668,-0.405143 0.595313,-0.405143 0.198437,0 0.388606,0.115755 0.388606,0.359668 0,0.235644 -0.157096,0.463021 -0.39274,0.516764 -0.02481,0.0041 -0.02894,0.0041 -0.305925,0.02894 v 0.23151 h 0.276986 c 0.413411,0 0.500228,0.359668 0.500228,0.549838 0,0.30179 -0.177767,0.549837 -0.475424,0.549837 -0.264583,0 -0.570507,-0.136426 -0.740006,-0.396875 l -0.04134,0.23151 c 0.28112,0.359668 0.636653,0.396875 0.789616,0.396875 0.471289,0 0.806152,-0.37207 0.806152,-0.777213 0,-0.347266 -0.268718,-0.587045 -0.529167,-0.669727 0.293522,-0.157096 0.425814,-0.417545 0.425814,-0.661458 0,-0.330729 -0.318327,-0.58291 -0.698665,-0.58291 -0.297656,0 -0.578776,0.152962 -0.740007,0.421679 z m 2.717147,-0.628385 h -0.07441 c -0.227377,0.235644 -0.545703,0.243913 -0.731738,0.252181 v 0.223242 c 0.128157,-0.0041 0.310058,-0.0124 0.504361,-0.09095 v 2.000912 h -0.483691 v 0.223242 h 1.269173 V 25.560198 H 59.83201 Z m 0,0"
       style="fill:#000000;fill-opacity:1;fill-rule:nonzero;stroke:none;stroke-width:0.352778"
       aria-label="31" />
    <path
       id="path49"
       d="m 63.266421,23.803198 c 0.111621,-0.268717 0.359668,-0.405143 0.595312,-0.405143 0.198438,0 0.388607,0.115755 0.388607,0.359668 0,0.235644 -0.157096,0.463021 -0.392741,0.516764 -0.0248,0.0041 -0.02894,0.0041 -0.305924,0.02894 v 0.23151 h 0.276986 c 0.413411,0 0.500227,0.359668 0.500227,0.549838 0,0.30179 -0.177766,0.549837 -0.475423,0.549837 -0.264583,0 -0.570508,-0.136426 -0.740006,-0.396875 l -0.04134,0.23151 c 0.281119,0.359668 0.636653,0.396875 0.789615,0.396875 0.47129,0 0.806153,-0.37207 0.806153,-0.777213 0,-0.347266 -0.268718,-0.587045 -0.529167,-0.669727 0.293522,-0.157096 0.425814,-0.417545 0.425814,-0.661458 0,-0.330729 -0.318327,-0.58291 -0.698665,-0.58291 -0.297657,0 -0.578776,0.152962 -0.740007,0.421679 z m 2.9993,1.322917 h 0.384473 V 24.89047 h -0.384473 v -1.632975 h -0.347266 l -0.975651,1.632975 v 0.235645 h 1.021127 v 0.657324 h 0.30179 z M 65.244595,24.89047 c 0.198437,-0.330729 0.740006,-1.244368 0.740006,-1.463476 v 1.463476 z m 2.663403,-1.715657 h -0.07441 c -0.227376,0.235644 -0.545703,0.243913 -0.731738,0.252181 v 0.223242 c 0.128157,-0.0041 0.310058,-0.0124 0.504362,-0.09095 v 2.000912 H 67.12252 v 0.223242 h 1.269173 v -0.223242 h -0.483691 z m 1.444873,1.885156 -0.475423,0.475423 v 0.248047 h 1.533756 v -0.272852 h -0.698665 c -0.04961,0 -0.09509,0.0041 -0.14056,0.0041 h -0.417546 c 0.11989,-0.107487 0.413412,-0.396875 0.533301,-0.508497 0.07441,-0.07028 0.268718,-0.23151 0.343131,-0.30179 0.173633,-0.173633 0.380339,-0.376204 0.380339,-0.702799 0,-0.442351 -0.310058,-0.826823 -0.818554,-0.826823 -0.438217,0 -0.657325,0.297656 -0.748275,0.628385 0.04547,0.06615 0.06615,0.09095 0.07441,0.103353 0.0083,0.0083 0.04547,0.05788 0.08268,0.111621 0.07855,-0.297656 0.186035,-0.599446 0.537435,-0.599446 0.359668,0 0.558105,0.289388 0.558105,0.591178 0,0.326595 -0.219107,0.545703 -0.446484,0.777213 z m 0,0"
       style="fill:#000000;fill-opacity:1;fill-rule:nonzero;stroke:none;stroke-width:0.352778"
       aria-label="3412" />
    <path
       id="path50"
       d="m 74.340681,25.126115 h 0.384472 V 24.89047 h -0.384472 v -1.632975 h -0.347266 l -0.975651,1.632975 v 0.235645 h 1.021126 v 0.657324 h 0.301791 z M 73.319554,24.89047 c 0.198438,-0.330729 0.740007,-1.244368 0.740007,-1.463476 v 1.463476 z m 2.18488,0.169499 -0.475423,0.475423 v 0.248047 h 1.533756 v -0.272852 h -0.698665 c -0.04961,0 -0.09508,0.0041 -0.14056,0.0041 h -0.417546 c 0.11989,-0.107487 0.413412,-0.396875 0.533301,-0.508497 0.07441,-0.07028 0.268717,-0.23151 0.343131,-0.30179 0.173633,-0.173633 0.380339,-0.376204 0.380339,-0.702799 0,-0.442351 -0.310059,-0.826823 -0.818555,-0.826823 -0.438216,0 -0.657324,0.297656 -0.748274,0.628385 0.04548,0.06615 0.06615,0.09095 0.07441,0.103353 0.0083,0.0083 0.04547,0.05788 0.08268,0.111621 0.07855,-0.297656 0.186035,-0.599446 0.537435,-0.599446 0.359668,0 0.558105,0.289388 0.558105,0.591178 0,0.326595 -0.219108,0.545703 -0.446484,0.777213 z m 2.403987,-1.885156 h -0.07441 c -0.227376,0.235644 -0.545703,0.243913 -0.731738,0.252181 v 0.223242 c 0.128158,-0.0041 0.310059,-0.0124 0.504362,-0.09095 v 2.000912 h -0.483692 v 0.223242 h 1.269173 v -0.223242 h -0.483691 z m 1.130681,0.628385 c 0.111621,-0.268717 0.359667,-0.405143 0.595312,-0.405143 0.198438,0 0.388607,0.115755 0.388607,0.359668 0,0.235644 -0.157097,0.463021 -0.392741,0.516764 -0.0248,0.0041 -0.02894,0.0041 -0.305925,0.02894 v 0.23151 h 0.276986 c 0.413412,0 0.500228,0.359668 0.500228,0.549838 0,0.30179 -0.177767,0.549837 -0.475423,0.549837 -0.264584,0 -0.570508,-0.136426 -0.740007,-0.396875 l -0.04134,0.23151 c 0.28112,0.359668 0.636654,0.396875 0.789616,0.396875 0.471289,0 0.806152,-0.37207 0.806152,-0.777213 0,-0.347266 -0.268717,-0.587045 -0.529166,-0.669727 0.293522,-0.157096 0.425813,-0.417545 0.425813,-0.661458 0,-0.330729 -0.318327,-0.58291 -0.698665,-0.58291 -0.297656,0 -0.578776,0.152962 -0.740006,0.421679 z m 0,0"
       style="fill:#000000;fill-opacity:1;fill-rule:nonzero;stroke:none;stroke-width:0.352778"
       aria-label="4213" />
    <path
       id="path51"
       d="m 84.341104,25.126115 h 0.384473 V 24.89047 h -0.384473 v -1.632975 h -0.347266 l -0.975651,1.632975 v 0.235645 h 1.021127 v 0.657324 h 0.30179 z M 83.319978,24.89047 c 0.198437,-0.330729 0.740006,-1.244368 0.740006,-1.463476 v 1.463476 z m 2.664436,-1.715657 H 85.91 c -0.227376,0.235644 -0.545703,0.243913 -0.731738,0.252181 v 0.223242 c 0.128158,-0.0041 0.310059,-0.0124 0.504362,-0.09095 v 2.000912 h -0.483691 v 0.223242 h 1.269173 v -0.223242 h -0.483692 z m 1.130681,0.628385 c 0.111621,-0.268717 0.359668,-0.405143 0.595312,-0.405143 0.198438,0 0.388607,0.115755 0.388607,0.359668 0,0.235644 -0.157096,0.463021 -0.392741,0.516764 -0.0248,0.0041 -0.02894,0.0041 -0.305924,0.02894 v 0.23151 h 0.276985 c 0.413412,0 0.500228,0.359668 0.500228,0.549838 0,0.30179 -0.177767,0.549837 -0.475423,0.549837 -0.264583,0 -0.570508,-0.136426 -0.740006,-0.396875 l -0.04134,0.23151 c 0.281119,0.359668 0.636653,0.396875 0.789615,0.396875 0.471289,0 0.806153,-0.37207 0.806153,-0.777213 0,-0.347266 -0.268718,-0.587045 -0.529167,-0.669727 0.293522,-0.157096 0.425814,-0.417545 0.425814,-0.661458 0,-0.330729 -0.318327,-0.58291 -0.698666,-0.58291 -0.297656,0 -0.578776,0.152962 -0.740006,0.421679 z m 2.237589,1.256771 -0.475423,0.475423 v 0.248047 h 1.533756 v -0.272852 h -0.698665 c -0.04961,0 -0.09508,0.0041 -0.14056,0.0041 h -0.417545 c 0.119889,-0.107487 0.413411,-0.396875 0.5333,-0.508497 0.07442,-0.07028 0.268718,-0.23151 0.343132,-0.30179 0.173633,-0.173633 0.380338,-0.376204 0.380338,-0.702799 0,-0.442351 -0.310058,-0.826823 -0.818554,-0.826823 -0.438216,0 -0.657324,0.297656 -0.748275,0.628385 0.04547,0.06615 0.06615,0.09095 0.07441,0.103353 0.0083,0.0083 0.04548,0.05788 0.08268,0.111621 0.07855,-0.297656 0.186035,-0.599446 0.537434,-0.599446 0.359668,0 0.558106,0.289388 0.558106,0.591178 0,0.326595 -0.219108,0.545703 -0.446485,0.777213 z m 0,0"
       style="fill:#000000;fill-opacity:1;fill-rule:nonzero;stroke:none;stroke-width:0.352778"
       aria-label="4132" />
    <path
       id="path52"
       d="m 53.265998,13.802775 c 0.111621,-0.268718 0.359667,-0.405143 0.595312,-0.405143 0.198437,0 0.388607,0.115755 0.388607,0.359668 0,0.235644 -0.157097,0.46302 -0.392741,0.516764 -0.02481,0.0041 -0.02894,0.0041 -0.305925,0.02894 v 0.23151 h 0.276986 c 0.413412,0 0.500228,0.359668 0.500228,0.549837 0,0.301791 -0.177767,0.549837 -0.475423,0.549837 -0.264584,0 -0.570508,-0.136425 -0.740007,-0.396875 l -0.04134,0.231511 c 0.28112,0.359668 0.636654,0.396875 0.789616,0.396875 0.471289,0 0.806152,-0.37207 0.806152,-0.777214 0,-0.347265 -0.268717,-0.587044 -0.529166,-0.669726 0.293522,-0.157097 0.425813,-0.417546 0.425813,-0.661458 0,-0.33073 -0.318326,-0.582911 -0.698665,-0.582911 -0.297656,0 -0.578776,0.152963 -0.740006,0.42168 z m 0,0"
       style="fill:#000000;fill-opacity:1;fill-rule:nonzero;stroke:none;stroke-width:0.352778"
       aria-label="3" />
    <path
       id="path53"
       d="m 56.2653,15.125691 h 0.384472 V 14.890047 H 56.2653 v -1.632975 h -0.347266 l -0.975651,1.632975 v 0.235644 h 1.021126 v 0.657325 H 56.2653 Z m -1.021127,-0.235644 c 0.198438,-0.330729 0.740007,-1.244368 0.740007,-1.463477 v 1.463477 z m 2.18488,0.169499 -0.475423,0.475423 v 0.248047 h 1.533756 v -0.272852 h -0.698665 c -0.04961,0 -0.09509,0.0041 -0.14056,0.0041 h -0.417546 c 0.11989,-0.107487 0.413412,-0.396875 0.533301,-0.508496 0.07441,-0.07028 0.268717,-0.23151 0.343132,-0.30179 0.173632,-0.173633 0.380338,-0.376205 0.380338,-0.7028 0,-0.44235 -0.310059,-0.826822 -0.818555,-0.826822 -0.438216,0 -0.657324,0.297656 -0.748274,0.628385 0.04547,0.06615 0.06615,0.09095 0.07441,0.103353 0.0083,0.0083 0.04548,0.05788 0.08268,0.111621 0.07855,-0.297656 0.186035,-0.599447 0.537435,-0.599447 0.359668,0 0.558105,0.289388 0.558105,0.591179 0,0.326595 -0.219108,0.545703 -0.446484,0.777213 z m 0,0"
       style="fill:#000000;fill-opacity:1;fill-rule:nonzero;stroke:none;stroke-width:0.352778"
       aria-label="42" />
    <path
       id="path54"
       d="m 59.832005,13.174389 h -0.07441 c -0.227376,0.235645 -0.545703,0.243913 -0.731738,0.252181 v 0.223243 c 0.128157,-0.0041 0.310058,-0.0124 0.504362,-0.09095 v 2.000911 h -0.483692 v 0.223243 H 60.3157 v -0.223243 h -0.483691 z m 0,0"
       style="fill:#000000;fill-opacity:1;fill-rule:nonzero;stroke:none;stroke-width:0.352778"
       aria-label="1" />
    <path
       id="path55"
       d="m 64.341291,15.125691 h 0.384472 v -0.235644 h -0.384472 v -1.632975 h -0.347266 l -0.975651,1.632975 v 0.235644 H 64.0395 v 0.657325 h 0.301791 z m -1.021126,-0.235644 c 0.198437,-0.330729 0.740006,-1.244368 0.740006,-1.463477 v 1.463477 z m 2.184879,0.169499 -0.475423,0.475423 v 0.248047 h 1.533756 v -0.272852 h -0.698665 c -0.04961,0 -0.09508,0.0041 -0.14056,0.0041 h -0.417546 c 0.11989,-0.107487 0.413412,-0.396875 0.533301,-0.508496 0.07441,-0.07028 0.268718,-0.23151 0.343132,-0.30179 0.173633,-0.173633 0.380338,-0.376205 0.380338,-0.7028 0,-0.44235 -0.310058,-0.826822 -0.818554,-0.826822 -0.438217,0 -0.657325,0.297656 -0.748275,0.628385 0.04547,0.06615 0.06615,0.09095 0.07441,0.103353 0.0083,0.0083 0.04548,0.05788 0.08268,0.111621 0.07855,-0.297656 0.186035,-0.599447 0.537435,-0.599447 0.359668,0 0.558106,0.289388 0.558106,0.591179 0,0.326595 -0.219109,0.545703 -0.446485,0.777213 z m 0,0"
       style="fill:#000000;fill-opacity:1;fill-rule:nonzero;stroke:none;stroke-width:0.352778"
       aria-label="42" />
    <path
       id="path56"
       d="m 67.114249,13.802775 c 0.111621,-0.268718 0.359668,-0.405143 0.595313,-0.405143 0.198437,0 0.388606,0.115755 0.388606,0.359668 0,0.235644 -0.157096,0.46302 -0.392741,0.516764 -0.0248,0.0041 -0.02894,0.0041 -0.305924,0.02894 v 0.23151 h 0.276986 c 0.413411,0 0.500228,0.359668 0.500228,0.549837 0,0.301791 -0.177767,0.549837 -0.475424,0.549837 -0.264583,0 -0.570507,-0.136425 -0.740006,-0.396875 l -0.04134,0.231511 c 0.28112,0.359668 0.636653,0.396875 0.789616,0.396875 0.471289,0 0.806152,-0.37207 0.806152,-0.777214 0,-0.347265 -0.268718,-0.587044 -0.529167,-0.669726 0.293522,-0.157097 0.425814,-0.417546 0.425814,-0.661458 0,-0.33073 -0.318327,-0.582911 -0.698665,-0.582911 -0.297657,0 -0.578776,0.152963 -0.740007,0.42168 z m 2.71818,-0.628386 h -0.07441 c -0.227376,0.235645 -0.545703,0.243913 -0.731738,0.252181 v 0.223243 c 0.128158,-0.0041 0.310059,-0.0124 0.504362,-0.09095 v 2.000911 h -0.483691 v 0.223243 h 1.269173 v -0.223243 h -0.483692 z m 0,0"
       style="fill:#000000;fill-opacity:1;fill-rule:nonzero;stroke:none;stroke-width:0.352778"
       aria-label="31" />
    <path
       id="path57"
       d="m 74.340681,15.125691 h 0.384472 v -0.235644 h -0.384472 v -1.632975 h -0.347266 l -0.975651,1.632975 v 0.235644 h 1.021126 v 0.657325 h 0.301791 z m -1.021127,-0.235644 c 0.198438,-0.330729 0.740007,-1.244368 0.740007,-1.463477 v 1.463477 z m 1.870687,-1.087272 c 0.111621,-0.268718 0.359668,-0.405143 0.595313,-0.405143 0.198437,0 0.388606,0.115755 0.388606,0.359668 0,0.235644 -0.157096,0.46302 -0.392741,0.516764 -0.0248,0.0041 -0.02894,0.0041 -0.305924,0.02894 v 0.23151 h 0.276986 c 0.413411,0 0.500227,0.359668 0.500227,0.549837 0,0.301791 -0.177766,0.549837 -0.475423,0.549837 -0.264583,0 -0.570508,-0.136425 -0.740006,-0.396875 l -0.04134,0.231511 c 0.281119,0.359668 0.636653,0.396875 0.789616,0.396875 0.471289,0 0.806152,-0.37207 0.806152,-0.777214 0,-0.347265 -0.268718,-0.587044 -0.529167,-0.669726 0.293522,-0.157097 0.425814,-0.417546 0.425814,-0.661458 0,-0.33073 -0.318327,-0.582911 -0.698665,-0.582911 -0.297657,0 -0.578776,0.152963 -0.740007,0.42168 z m 2.71818,-0.628386 h -0.07441 c -0.227376,0.235645 -0.545703,0.243913 -0.731738,0.252181 v 0.223243 c 0.128158,-0.0041 0.310059,-0.0124 0.504362,-0.09095 v 2.000911 h -0.483692 v 0.223243 h 1.269173 v -0.223243 h -0.483691 z m 1.444873,1.885157 -0.475423,0.475423 v 0.248047 h 1.533757 v -0.272852 h -0.698666 c -0.04961,0 -0.09508,0.0041 -0.14056,0.0041 h -0.417545 c 0.119889,-0.107487 0.413411,-0.396875 0.5333,-0.508496 0.07442,-0.07028 0.268718,-0.23151 0.343132,-0.30179 0.173633,-0.173633 0.380339,-0.376205 0.380339,-0.7028 0,-0.44235 -0.310059,-0.826822 -0.818555,-0.826822 -0.438216,0 -0.657324,0.297656 -0.748275,0.628385 0.04547,0.06615 0.06615,0.09095 0.07441,0.103353 0.0083,0.0083 0.04547,0.05788 0.08268,0.111621 0.07855,-0.297656 0.186036,-0.599447 0.537435,-0.599447 0.359668,0 0.558106,0.289388 0.558106,0.591179 0,0.326595 -0.219108,0.545703 -0.446484,0.777213 z m 0,0"
       style="fill:#000000;fill-opacity:1;fill-rule:nonzero;stroke:none;stroke-width:0.352778"
       aria-label="4312" />
    <path
       id="path58"
       d="m 64.341291,5.126302 h 0.384472 V 4.8906575 H 64.341291 V 3.2576823 H 63.994025 L 63.018374,4.8906575 V 5.126302 H 64.0395 v 0.6573242 h 0.301791 z M 63.320165,4.8906575 C 63.518602,4.5599283 64.060171,3.6462891 64.060171,3.427181 v 1.4634765 z m 0,0"
       style="fill:#000000;fill-opacity:1;fill-rule:nonzero;stroke:none;stroke-width:0.352778"
       aria-label="4" />
    <path
       id="path59"
       d="m 65.190853,3.8033854 c 0.111621,-0.2687174 0.359668,-0.4051432 0.595313,-0.4051432 0.198437,0 0.388607,0.1157552 0.388607,0.3596679 0,0.2356446 -0.157097,0.4630208 -0.392741,0.5167644 -0.02481,0.00413 -0.02894,0.00413 -0.305925,0.028939 v 0.2315104 h 0.276986 c 0.413411,0 0.500228,0.3596679 0.500228,0.5498372 0,0.3017903 -0.177767,0.5498372 -0.475423,0.5498372 -0.264584,0 -0.570508,-0.1364258 -0.740007,-0.396875 l -0.04134,0.2315104 c 0.28112,0.359668 0.636654,0.396875 0.789616,0.396875 0.471289,0 0.806152,-0.3720703 0.806152,-0.7772135 0,-0.3472656 -0.268717,-0.5870442 -0.529167,-0.6697265 C 66.356674,4.262272 66.488965,4.0018228 66.488965,3.7579101 66.488965,3.4271809 66.170638,3.175 65.7903,3.175 c -0.297656,0 -0.578776,0.1529622 -0.740007,0.4216796 z m 0,0"
       style="fill:#000000;fill-opacity:1;fill-rule:nonzero;stroke:none;stroke-width:0.352778"
       aria-label="3" />
    <path
       id="path60"
       d="m 67.428442,5.0601562 -0.475423,0.4754231 v 0.2480469 h 1.533756 V 5.5107746 H 67.78811 c -0.04961,0 -0.09508,0.00413 -0.14056,0.00413 h -0.417546 c 0.11989,-0.107487 0.413412,-0.396875 0.533301,-0.5084961 0.07441,-0.07028 0.268718,-0.2315104 0.343132,-0.3017904 0.173632,-0.1736328 0.380338,-0.3762044 0.380338,-0.7027994 0,-0.4423503 -0.310058,-0.8268229 -0.818555,-0.8268229 -0.438216,0 -0.657324,0.2976563 -0.748274,0.6283854 0.04548,0.066146 0.06615,0.090951 0.07441,0.1033529 0.0083,0.00827 0.04547,0.057878 0.08268,0.1116211 0.07855,-0.2976563 0.186035,-0.5994466 0.537435,-0.5994466 0.359668,0 0.558105,0.289388 0.558105,0.5911783 0,0.326595 -0.219108,0.5457031 -0.446484,0.7772135 z m 0,0"
       style="fill:#000000;fill-opacity:1;fill-rule:nonzero;stroke:none;stroke-width:0.352778"
       aria-label="2" />
    <path
       id="path61"
       d="m 69.832428,3.175 h -0.07441 C 69.530642,3.4106445 69.212315,3.4189128 69.02628,3.427181 v 0.2232422 c 0.128158,-0.00413 0.310059,-0.012402 0.504362,-0.090951 V 5.560384 H 69.046947 V 5.7836262 H 70.31612 V 5.560384 h -0.483692 z m 0,0"
       style="fill:#000000;fill-opacity:1;fill-rule:nonzero;stroke:none;stroke-width:0.352778"
       aria-label="1" />
    <path
       id="path62"
       d="M 64.14512,61.907417 59.373078,57.136214"
       style="fill:none;stroke:#ff0000;stroke-width:0.140582;stroke-linecap:butt;stroke-linejoin:miter;stroke-miterlimit:10;stroke-dasharray:none;stroke-opacity:1" />
    <path
       id="path63"
       d="M 66.75914,61.907417 V 57.136214"
       style="fill:none;stroke:#0000ff;stroke-width:0.140582;stroke-linecap:butt;stroke-linejoin:miter;stroke-miterlimit:10;stroke-dasharray:none;stroke-opacity:1" />
    <path
       id="path64"
       d="m 69.37316,61.907417 4.772042,-4.771203"
       style="fill:none;stroke:#00ff00;stroke-width:0.140582;stroke-linecap:butt;stroke-linejoin:miter;stroke-miterlimit:10;stroke-dasharray:none;stroke-opacity:1" />
    <path
       id="path65"
       d="M 54.145,51.907293 49.372954,47.136086"
       style="fill:none;stroke:#0000ff;stroke-width:0.140582;stroke-linecap:butt;stroke-linejoin:miter;stroke-miterlimit:10;stroke-dasharray:none;stroke-opacity:1" />
    <path
       id="path66"
       d="m 59.373039,51.907293 4.772042,-4.771207"
       style="fill:none;stroke:#00ff00;stroke-width:0.140582;stroke-linecap:butt;stroke-linejoin:miter;stroke-miterlimit:10;stroke-dasharray:none;stroke-opacity:1" />
    <path
       id="path67"
       d="M 64.14512,51.907293 59.373078,47.136086"
       style="fill:none;stroke:#ff0000;stroke-width:0.140582;stroke-linecap:butt;stroke-linejoin:miter;stroke-miterlimit:10;stroke-dasharray:none;stroke-opacity:1" />
    <path
       id="path68"
       d="m 69.37316,51.907293 4.772042,-4.771207"
       style="fill:none;stroke:#00ff00;stroke-width:0.140582;stroke-linecap:butt;stroke-linejoin:miter;stroke-miterlimit:10;stroke-dasharray:none;stroke-opacity:1" />
    <path
       id="path69"
       d="M 74.145241,51.907293 69.373199,47.136086"
       style="fill:none;stroke:#ff0000;stroke-width:0.140582;stroke-linecap:butt;stroke-linejoin:miter;stroke-miterlimit:10;stroke-dasharray:none;stroke-opacity:1" />
    <path
       id="path70"
       d="m 79.37328,51.907293 4.772046,-4.771207"
       style="fill:none;stroke:#0000ff;stroke-width:0.140582;stroke-linecap:butt;stroke-linejoin:miter;stroke-miterlimit:10;stroke-dasharray:none;stroke-opacity:1" />
    <path
       id="path71"
       d="M 45.45191,41.907165 43.065862,37.135966"
       style="fill:none;stroke:#ff0000;stroke-width:0.140582;stroke-linecap:butt;stroke-linejoin:miter;stroke-miterlimit:10;stroke-dasharray:none;stroke-opacity:1" />
    <path
       id="path72"
       d="m 48.06588,41.907165 2.386052,-4.771199"
       style="fill:none;stroke:#00ff00;stroke-width:0.140582;stroke-linecap:butt;stroke-linejoin:miter;stroke-miterlimit:10;stroke-dasharray:none;stroke-opacity:1" />
    <path
       id="path73"
       d="M 52.838004,41.907165 45.679928,37.135966"
       style="fill:none;stroke:#0000ff;stroke-width:0.140582;stroke-linecap:butt;stroke-linejoin:miter;stroke-miterlimit:10;stroke-dasharray:none;stroke-opacity:1" />
    <path
       id="path74"
       d="m 58.066008,41.907165 2.386044,-4.771199"
       style="fill:none;stroke:#00ff00;stroke-width:0.140582;stroke-linecap:butt;stroke-linejoin:miter;stroke-miterlimit:10;stroke-dasharray:none;stroke-opacity:1" />
    <path
       id="path75"
       d="m 68.066122,41.907165 2.386047,-4.771199"
       style="fill:none;stroke:#0000ff;stroke-width:0.140582;stroke-linecap:butt;stroke-linejoin:miter;stroke-miterlimit:10;stroke-dasharray:none;stroke-opacity:1" />
    <path
       id="path76"
       d="M 72.838249,41.907165 65.680173,37.135966"
       style="fill:none;stroke:#ff0000;stroke-width:0.140582;stroke-linecap:butt;stroke-linejoin:miter;stroke-miterlimit:10;stroke-dasharray:none;stroke-opacity:1" />
    <path
       id="path77"
       d="m 80.680276,41.907165 7.158076,-4.771199"
       style="fill:none;stroke:#0000ff;stroke-width:0.140582;stroke-linecap:butt;stroke-linejoin:miter;stroke-miterlimit:10;stroke-dasharray:none;stroke-opacity:1" />
    <path
       id="path78"
       d="M 85.4524,41.907165 83.066348,37.135966"
       style="fill:none;stroke:#ff0000;stroke-width:0.140582;stroke-linecap:butt;stroke-linejoin:miter;stroke-miterlimit:10;stroke-dasharray:none;stroke-opacity:1" />
    <path
       id="path79"
       d="m 88.06637,41.907165 2.386048,-4.771199"
       style="fill:none;stroke:#00ff00;stroke-width:0.140582;stroke-linecap:butt;stroke-linejoin:miter;stroke-miterlimit:10;stroke-dasharray:none;stroke-opacity:1" />
    <path
       id="path80"
       d="m 43.06582,31.907044 2.386048,-4.771206"
       style="fill:none;stroke:#00ff00;stroke-width:0.140582;stroke-linecap:butt;stroke-linejoin:miter;stroke-miterlimit:10;stroke-dasharray:none;stroke-opacity:1" />
    <path
       id="path81"
       d="M 50.451974,31.907044 48.065923,27.135838"
       style="fill:none;stroke:#ff0000;stroke-width:0.140582;stroke-linecap:butt;stroke-linejoin:miter;stroke-miterlimit:10;stroke-dasharray:none;stroke-opacity:1" />
    <path
       id="path82"
       d="m 53.065948,31.907044 2.38604,-4.771206"
       style="fill:none;stroke:#0000ff;stroke-width:0.140582;stroke-linecap:butt;stroke-linejoin:miter;stroke-miterlimit:10;stroke-dasharray:none;stroke-opacity:1" />
    <path
       id="path83"
       d="m 63.066068,31.907044 2.386045,-4.771206"
       style="fill:none;stroke:#0000ff;stroke-width:0.140582;stroke-linecap:butt;stroke-linejoin:miter;stroke-miterlimit:10;stroke-dasharray:none;stroke-opacity:1" />
    <path
       id="path84"
       d="M 73.066182,31.907044 75.45223,27.135838"
       style="fill:none;stroke:#ff0000;stroke-width:0.140582;stroke-linecap:butt;stroke-linejoin:miter;stroke-miterlimit:10;stroke-dasharray:none;stroke-opacity:1" />
    <path
       id="path85"
       d="M 67.838181,31.907044 60.680109,27.135838"
       style="fill:none;stroke:#00ff00;stroke-width:0.140582;stroke-linecap:butt;stroke-linejoin:miter;stroke-miterlimit:10;stroke-dasharray:none;stroke-opacity:1" />
    <path
       id="path86"
       d="m 80.452332,31.907044 -2.38604,-4.771206"
       style="fill:none;stroke:#0000ff;stroke-width:0.140582;stroke-linecap:butt;stroke-linejoin:miter;stroke-miterlimit:10;stroke-dasharray:none;stroke-opacity:1" />
    <path
       id="path87"
       d="m 83.066306,31.907044 2.386051,-4.771206"
       style="fill:none;stroke:#00ff00;stroke-width:0.140582;stroke-linecap:butt;stroke-linejoin:miter;stroke-miterlimit:10;stroke-dasharray:none;stroke-opacity:1" />
    <path
       id="path88"
       d="M 90.45246,31.907044 88.066412,27.135838"
       style="fill:none;stroke:#ff0000;stroke-width:0.140582;stroke-linecap:butt;stroke-linejoin:miter;stroke-miterlimit:10;stroke-dasharray:none;stroke-opacity:1" />
    <path
       id="path89"
       d="m 49.372918,21.906917 4.772043,-4.771199"
       style="fill:none;stroke:#0000ff;stroke-width:0.140582;stroke-linecap:butt;stroke-linejoin:miter;stroke-miterlimit:10;stroke-dasharray:none;stroke-opacity:1" />
    <path
       id="path90"
       d="m 59.373039,21.906917 4.772042,-4.771199"
       style="fill:none;stroke:#ff0000;stroke-width:0.140582;stroke-linecap:butt;stroke-linejoin:miter;stroke-miterlimit:10;stroke-dasharray:none;stroke-opacity:1" />
    <path
       id="path91"
       d="m 69.37316,21.906917 4.772042,-4.771199"
       style="fill:none;stroke:#ff0000;stroke-width:0.140582;stroke-linecap:butt;stroke-linejoin:miter;stroke-miterlimit:10;stroke-dasharray:none;stroke-opacity:1" />
    <path
       id="path92"
       d="M 64.14512,21.906917 59.373078,17.135718"
       style="fill:none;stroke:#00ff00;stroke-width:0.140582;stroke-linecap:butt;stroke-linejoin:miter;stroke-miterlimit:10;stroke-dasharray:none;stroke-opacity:1" />
    <path
       id="path93"
       d="M 74.145241,21.906917 69.373199,17.135718"
       style="fill:none;stroke:#00ff00;stroke-width:0.140582;stroke-linecap:butt;stroke-linejoin:miter;stroke-miterlimit:10;stroke-dasharray:none;stroke-opacity:1" />
    <path
       id="path94"
       d="M 84.145362,21.906917 79.373319,17.135718"
       style="fill:none;stroke:#0000ff;stroke-width:0.140582;stroke-linecap:butt;stroke-linejoin:miter;stroke-miterlimit:10;stroke-dasharray:none;stroke-opacity:1" />
    <path
       id="path95"
       d="M 59.373039,11.906796 64.145081,7.1355934"
       style="fill:none;stroke:#ff0000;stroke-width:0.140582;stroke-linecap:butt;stroke-linejoin:miter;stroke-miterlimit:10;stroke-dasharray:none;stroke-opacity:1" />
    <path
       id="path96"
       d="M 66.75914,11.906796 V 7.1355934"
       style="fill:none;stroke:#0000ff;stroke-width:0.140582;stroke-linecap:butt;stroke-linejoin:miter;stroke-miterlimit:10;stroke-dasharray:none;stroke-opacity:1" />
    <path
       id="path97"
       d="M 74.145241,11.906796 69.373199,7.1355934"
       style="fill:none;stroke:#00ff00;stroke-width:0.140582;stroke-linecap:butt;stroke-linejoin:miter;stroke-miterlimit:10;stroke-dasharray:none;stroke-opacity:1" />
  </g>
</svg>
