<?xml version="1.0" encoding="UTF-8" standalone="no"?>
<!-- Created with Inkscape (http://www.inkscape.org/) -->

<svg
   width="57.339088mm"
   height="62.690742mm"
   viewBox="0 0 57.339088 62.690742"
   version="1.1"
   id="svg1"
   inkscape:version="1.3.2 (1:1.3.2+202311252150+091e20ef0f)"
   sodipodi:docname="weakorder4.svg"
   inkscape:export-filename="weakorder4.png"
   inkscape:export-xdpi="90"
   inkscape:export-ydpi="90"
   xmlns:inkscape="http://www.inkscape.org/namespaces/inkscape"
   xmlns:sodipodi="http://sodipodi.sourceforge.net/DTD/sodipodi-0.dtd"
   xmlns="http://www.w3.org/2000/svg"
   xmlns:svg="http://www.w3.org/2000/svg">
  <sodipodi:namedview
     id="namedview1"
     pagecolor="#ffffff"
     bordercolor="#666666"
     borderopacity="1.0"
     inkscape:showpageshadow="2"
     inkscape:pageopacity="0.0"
     inkscape:pagecheckerboard="0"
     inkscape:deskcolor="#d1d1d1"
     inkscape:document-units="mm"
     inkscape:zoom="0.72693603"
     inkscape:cx="-99.733673"
     inkscape:cy="353.53868"
     inkscape:window-width="1850"
     inkscape:window-height="1016"
     inkscape:window-x="0"
     inkscape:window-y="0"
     inkscape:window-maximized="1"
     inkscape:current-layer="layer1" />
  <defs
     id="defs1" />
  <g
     inkscape:label="Calque 1"
     inkscape:groupmode="layer"
     id="layer1"
     transform="translate(-131.23338,-55.033299)">
    <path
       id="path19"
       d="m 157.22141,115.03277 h -0.0744 c -0.22738,0.23564 -0.5457,0.24391 -0.73174,0.25218 v 0.22324 c 0.12816,-0.004 0.31006,-0.0124 0.50436,-0.0909 v 2.00091 h -0.48369 v 0.22325 h 1.26918 v -0.22325 h -0.4837 z m 1.44488,1.88516 -0.47543,0.47542 v 0.24805 h 1.53376 v -0.27286 h -0.69866 c -0.0496,0 -0.0951,0.004 -0.14056,0.004 h -0.41755 c 0.11989,-0.10749 0.41341,-0.39688 0.5333,-0.5085 0.0744,-0.0703 0.26872,-0.23151 0.34313,-0.30179 0.17364,-0.17363 0.38034,-0.3762 0.38034,-0.7028 0,-0.44235 -0.31006,-0.82682 -0.81855,-0.82682 -0.43822,0 -0.65733,0.29766 -0.74828,0.62838 0.0455,0.0661 0.0661,0.091 0.0744,0.10336 0.008,0.008 0.0455,0.0579 0.0827,0.11162 0.0786,-0.29766 0.18603,-0.59945 0.53743,-0.59945 0.35967,0 0.55811,0.28939 0.55811,0.59118 0,0.3266 -0.21911,0.5457 -0.44649,0.77721 z m 1.6092,-1.25678 c 0.11162,-0.26871 0.35967,-0.40514 0.59531,-0.40514 0.19844,0 0.38861,0.11576 0.38861,0.35967 0,0.23564 -0.1571,0.46302 -0.39274,0.51676 -0.0248,0.004 -0.0289,0.004 -0.30592,0.0289 v 0.23151 h 0.27698 c 0.41341,0 0.50023,0.35967 0.50023,0.54984 0,0.30179 -0.17777,0.54984 -0.47542,0.54984 -0.26459,0 -0.57051,-0.13643 -0.74001,-0.39688 l -0.0413,0.23151 c 0.28112,0.35967 0.63665,0.39688 0.78961,0.39688 0.47129,0 0.80616,-0.37207 0.80616,-0.77722 0,-0.34726 -0.26872,-0.58704 -0.52917,-0.66972 0.29352,-0.1571 0.42581,-0.41755 0.42581,-0.66146 0,-0.33073 -0.31832,-0.58291 -0.69866,-0.58291 -0.29766,0 -0.57878,0.15296 -0.74001,0.42168 z m 2.9993,1.32292 h 0.38447 v -0.23564 h -0.38447 v -1.63298 h -0.34726 l -0.97565,1.63298 v 0.23564 h 1.02112 v 0.65733 h 0.30179 z m -1.02112,-0.23564 c 0.19843,-0.33073 0.74,-1.24437 0.74,-1.46348 v 1.46348 z m 0,0"
       style="fill:#000000;fill-opacity:1;fill-rule:nonzero;stroke:none;stroke-width:0.352778"
       aria-label="1234" />
    <path
       id="path20"
       d="m 146.74143,106.91853 -0.47543,0.47543 v 0.24804 h 1.53376 v -0.27285 h -0.69867 c -0.0496,0 -0.0951,0.004 -0.14056,0.004 h -0.41754 c 0.11989,-0.10749 0.41341,-0.39688 0.5333,-0.5085 0.0744,-0.0703 0.26872,-0.23151 0.34313,-0.30179 0.17363,-0.17363 0.38034,-0.3762 0.38034,-0.7028 0,-0.44235 -0.31006,-0.82682 -0.81856,-0.82682 -0.43821,0 -0.65732,0.29765 -0.74827,0.62838 0.0455,0.0661 0.0661,0.0909 0.0744,0.10336 0.008,0.008 0.0455,0.0579 0.0827,0.11162 0.0785,-0.29766 0.18603,-0.59945 0.53743,-0.59945 0.35967,0 0.55811,0.28939 0.55811,0.59118 0,0.32659 -0.21911,0.5457 -0.44649,0.77721 z m 0,0"
       style="fill:#000000;fill-opacity:1;fill-rule:nonzero;stroke:none;stroke-width:0.352778"
       aria-label="2" />
    <path
       id="path21"
       d="m 149.14542,105.03338 h -0.0744 c -0.22738,0.23564 -0.54571,0.24391 -0.73174,0.25218 v 0.22324 c 0.12816,-0.004 0.31006,-0.0124 0.50436,-0.0909 v 2.00091 h -0.48369 v 0.22324 h 1.26917 v -0.22324 h -0.48369 z m 1.13068,0.62838 c 0.11162,-0.26871 0.35967,-0.40514 0.59531,-0.40514 0.19844,0 0.38861,0.11576 0.38861,0.35967 0,0.23564 -0.1571,0.46302 -0.39274,0.51676 -0.0248,0.004 -0.0289,0.004 -0.30593,0.0289 v 0.23151 h 0.27699 c 0.41341,0 0.50023,0.35967 0.50023,0.54984 0,0.30179 -0.17777,0.54984 -0.47543,0.54984 -0.26458,0 -0.5705,-0.13643 -0.74,-0.39688 l -0.0413,0.23151 c 0.28112,0.35967 0.63665,0.39688 0.78961,0.39688 0.47129,0 0.80615,-0.37207 0.80615,-0.77722 0,-0.34726 -0.26871,-0.58704 -0.52916,-0.66972 0.29352,-0.1571 0.42581,-0.41755 0.42581,-0.66146 0,-0.33073 -0.31832,-0.58291 -0.69866,-0.58291 -0.29766,0 -0.57878,0.15296 -0.74001,0.42168 z m 0,0"
       style="fill:#000000;fill-opacity:1;fill-rule:nonzero;stroke:none;stroke-width:0.352778"
       aria-label="13" />
    <path
       id="path22"
       d="m 153.27437,106.98468 h 0.38447 v -0.23564 h -0.38447 v -1.63298 h -0.34727 l -0.97565,1.63298 v 0.23564 h 1.02113 v 0.65732 h 0.30179 z m -1.02113,-0.23564 c 0.19844,-0.33073 0.74001,-1.24437 0.74001,-1.46348 v 1.46348 z m 0,0"
       style="fill:#000000;fill-opacity:1;fill-rule:nonzero;stroke:none;stroke-width:0.352778"
       aria-label="4" />
    <path
       id="path23"
       d="m 157.22141,105.03338 h -0.0744 c -0.22738,0.23564 -0.5457,0.24391 -0.73174,0.25218 v 0.22324 c 0.12816,-0.004 0.31006,-0.0124 0.50436,-0.0909 v 2.00091 h -0.48369 v 0.22324 h 1.26918 v -0.22324 h -0.4837 z m 1.13069,0.62838 c 0.11162,-0.26871 0.35966,-0.40514 0.59531,-0.40514 0.19844,0 0.3886,0.11576 0.3886,0.35967 0,0.23564 -0.15709,0.46302 -0.39274,0.51676 -0.0248,0.004 -0.0289,0.004 -0.30592,0.0289 v 0.23151 h 0.27698 c 0.41342,0 0.50023,0.35967 0.50023,0.54984 0,0.30179 -0.17776,0.54984 -0.47542,0.54984 -0.26458,0 -0.57051,-0.13643 -0.74001,-0.39688 l -0.0413,0.23151 c 0.28112,0.35967 0.63666,0.39688 0.78962,0.39688 0.47129,0 0.80615,-0.37207 0.80615,-0.77722 0,-0.34726 -0.26872,-0.58704 -0.52917,-0.66972 0.29353,-0.1571 0.42582,-0.41755 0.42582,-0.66146 0,-0.33073 -0.31833,-0.58291 -0.69867,-0.58291 -0.29765,0 -0.57877,0.15296 -0.74,0.42168 z m 2.23758,1.25677 -0.47542,0.47543 v 0.24804 h 1.53376 v -0.27285 h -0.69867 c -0.0496,0 -0.0951,0.004 -0.14056,0.004 h -0.41754 c 0.11989,-0.10749 0.41341,-0.39688 0.5333,-0.5085 0.0744,-0.0703 0.26872,-0.23151 0.34313,-0.30179 0.17363,-0.17363 0.38034,-0.3762 0.38034,-0.7028 0,-0.44235 -0.31006,-0.82682 -0.81856,-0.82682 -0.43821,0 -0.65732,0.29765 -0.74827,0.62838 0.0455,0.0661 0.0661,0.0909 0.0744,0.10336 0.008,0.008 0.0455,0.0579 0.0827,0.11162 0.0785,-0.29766 0.18603,-0.59945 0.53743,-0.59945 0.35967,0 0.55811,0.28939 0.55811,0.59118 0,0.32659 -0.21911,0.5457 -0.44649,0.77721 z m 2.68511,0.0661 h 0.38447 v -0.23564 h -0.38447 v -1.63298 h -0.34726 l -0.97565,1.63298 v 0.23564 h 1.02112 v 0.65732 h 0.30179 z m -1.02112,-0.23564 c 0.19843,-0.33073 0.74,-1.24437 0.74,-1.46348 v 1.46348 z m 0,0"
       style="fill:#000000;fill-opacity:1;fill-rule:nonzero;stroke:none;stroke-width:0.352778"
       aria-label="1324" />
    <path
       id="path24"
       d="m 167.22081,105.03338 h -0.0744 c -0.22737,0.23564 -0.5457,0.24391 -0.73174,0.25218 v 0.22324 c 0.12816,-0.004 0.31006,-0.0124 0.50437,-0.0909 v 2.00091 h -0.4837 v 0.22324 h 1.26918 v -0.22324 h -0.48369 z m 1.44487,1.88515 -0.47542,0.47543 v 0.24804 h 1.53375 v -0.27285 h -0.69866 c -0.0496,0 -0.0951,0.004 -0.14056,0.004 h -0.41755 c 0.11989,-0.10749 0.41341,-0.39688 0.5333,-0.5085 0.0744,-0.0703 0.26872,-0.23151 0.34313,-0.30179 0.17364,-0.17363 0.38034,-0.3762 0.38034,-0.7028 0,-0.44235 -0.31006,-0.82682 -0.81855,-0.82682 -0.43822,0 -0.65733,0.29765 -0.74828,0.62838 0.0455,0.0661 0.0661,0.0909 0.0744,0.10336 0.008,0.008 0.0455,0.0579 0.0827,0.11162 0.0786,-0.29766 0.18603,-0.59945 0.53743,-0.59945 0.35967,0 0.55811,0.28939 0.55811,0.59118 0,0.32659 -0.21911,0.5457 -0.44649,0.77721 z m 2.68511,0.0661 h 0.38447 v -0.23564 h -0.38447 v -1.63298 h -0.34727 l -0.97565,1.63298 v 0.23564 h 1.02113 v 0.65732 h 0.30179 z m -1.02113,-0.23564 c 0.19844,-0.33073 0.74001,-1.24437 0.74001,-1.46348 v 1.46348 z m 1.87069,-1.08728 c 0.11162,-0.26871 0.35966,-0.40514 0.59531,-0.40514 0.19844,0 0.38861,0.11576 0.38861,0.35967 0,0.23564 -0.1571,0.46302 -0.39275,0.51676 -0.0248,0.004 -0.0289,0.004 -0.30592,0.0289 v 0.23151 h 0.27699 c 0.41341,0 0.50022,0.35967 0.50022,0.54984 0,0.30179 -0.17776,0.54984 -0.47542,0.54984 -0.26458,0 -0.57051,-0.13643 -0.74001,-0.39688 l -0.0413,0.23151 c 0.28112,0.35967 0.63666,0.39688 0.78962,0.39688 0.47129,0 0.80615,-0.37207 0.80615,-0.77722 0,-0.34726 -0.26872,-0.58704 -0.52917,-0.66972 0.29353,-0.1571 0.42582,-0.41755 0.42582,-0.66146 0,-0.33073 -0.31833,-0.58291 -0.69867,-0.58291 -0.29765,0 -0.57877,0.15296 -0.74,0.42168 z m 0,0"
       style="fill:#000000;fill-opacity:1;fill-rule:nonzero;stroke:none;stroke-width:0.352778"
       aria-label="1243" />
    <path
       id="path25"
       d="m 136.74205,96.918115 -0.47543,0.475423 v 0.248047 h 1.53376 v -0.272851 h -0.69867 c -0.0496,0 -0.0951,0.0041 -0.14056,0.0041 h -0.41754 c 0.11989,-0.107487 0.41341,-0.396875 0.5333,-0.508496 0.0744,-0.07028 0.26872,-0.231511 0.34313,-0.301791 0.17363,-0.173632 0.38034,-0.376204 0.38034,-0.702799 0,-0.44235 -0.31006,-0.826823 -0.81856,-0.826823 -0.43821,0 -0.65732,0.297656 -0.74827,0.628385 0.0455,0.06615 0.0661,0.09095 0.0744,0.103353 0.008,0.0083 0.0455,0.05788 0.0827,0.111621 0.0785,-0.297656 0.18603,-0.599446 0.53743,-0.599446 0.35967,0 0.55811,0.289388 0.55811,0.591178 0,0.326595 -0.21911,0.545703 -0.44649,0.777214 z m 0,0"
       style="fill:#000000;fill-opacity:1;fill-rule:nonzero;stroke:none;stroke-width:0.352778"
       aria-label="2" />
    <path
       id="path26"
       d="m 138.35125,95.661344 c 0.11162,-0.268717 0.35966,-0.405143 0.59531,-0.405143 0.19844,0 0.3886,0.115755 0.3886,0.359668 0,0.235645 -0.15709,0.463021 -0.39274,0.516764 -0.0248,0.0041 -0.0289,0.0041 -0.30592,0.02894 v 0.231511 h 0.27699 c 0.41341,0 0.50022,0.359668 0.50022,0.549837 0,0.30179 -0.17776,0.549837 -0.47542,0.549837 -0.26458,0 -0.57051,-0.136426 -0.74001,-0.396875 l -0.0413,0.23151 c 0.28112,0.359668 0.63666,0.396875 0.78962,0.396875 0.47129,0 0.80615,-0.37207 0.80615,-0.777213 0,-0.347266 -0.26872,-0.587044 -0.52917,-0.669727 0.29353,-0.157096 0.42582,-0.417545 0.42582,-0.661458 0,-0.330729 -0.31833,-0.58291 -0.69867,-0.58291 -0.29765,0 -0.57877,0.152962 -0.74,0.42168 z m 2.71818,-0.628385 h -0.0744 c -0.22737,0.235645 -0.5457,0.243913 -0.73174,0.252181 v 0.223242 c 0.12816,-0.0041 0.31006,-0.0124 0.50437,-0.09095 v 2.000911 h -0.4837 v 0.223242 h 1.26918 v -0.223242 h -0.48369 z m 0,0"
       style="fill:#000000;fill-opacity:1;fill-rule:nonzero;stroke:none;stroke-width:0.352778"
       aria-label="31" />
    <path
       id="path27"
       d="m 143.27498,96.984261 h 0.38447 v -0.235644 h -0.38447 v -1.632976 h -0.34727 l -0.97565,1.632976 v 0.235644 h 1.02113 v 0.657324 h 0.30179 z m -1.02113,-0.235644 c 0.19844,-0.33073 0.74001,-1.244369 0.74001,-1.463477 v 1.463477 z m 0,0"
       style="fill:#000000;fill-opacity:1;fill-rule:nonzero;stroke:none;stroke-width:0.352778"
       aria-label="4" />
    <path
       id="path28"
       d="m 146.42723,95.661344 c 0.11162,-0.268717 0.35967,-0.405143 0.59532,-0.405143 0.19843,0 0.3886,0.115755 0.3886,0.359668 0,0.235645 -0.15709,0.463021 -0.39274,0.516764 -0.0248,0.0041 -0.0289,0.0041 -0.30592,0.02894 v 0.231511 h 0.27698 c 0.41341,0 0.50023,0.359668 0.50023,0.549837 0,0.30179 -0.17777,0.549837 -0.47542,0.549837 -0.26459,0 -0.57051,-0.136426 -0.74001,-0.396875 l -0.0413,0.23151 c 0.28112,0.359668 0.63665,0.396875 0.78962,0.396875 0.47129,0 0.80615,-0.37207 0.80615,-0.777213 0,-0.347266 -0.26872,-0.587044 -0.52917,-0.669727 0.29352,-0.157096 0.42582,-0.417545 0.42582,-0.661458 0,-0.330729 -0.31833,-0.58291 -0.69867,-0.58291 -0.29766,0 -0.57878,0.152962 -0.74001,0.42168 z m 2.71818,-0.628385 h -0.0744 c -0.22738,0.235645 -0.5457,0.243913 -0.73174,0.252181 v 0.223242 c 0.12816,-0.0041 0.31006,-0.0124 0.50436,-0.09095 v 2.000911 h -0.48369 v 0.223242 h 1.26917 v -0.223242 h -0.48369 z m 1.44488,1.885156 -0.47543,0.475423 v 0.248047 h 1.53376 v -0.272851 h -0.69867 c -0.0496,0 -0.0951,0.0041 -0.14056,0.0041 h -0.41754 c 0.11989,-0.107487 0.41341,-0.396875 0.5333,-0.508496 0.0744,-0.07028 0.26872,-0.231511 0.34313,-0.301791 0.17363,-0.173632 0.38034,-0.376204 0.38034,-0.702799 0,-0.44235 -0.31006,-0.826823 -0.81855,-0.826823 -0.43822,0 -0.65733,0.297656 -0.74828,0.628385 0.0455,0.06615 0.0661,0.09095 0.0744,0.103353 0.008,0.0083 0.0455,0.05788 0.0827,0.111621 0.0786,-0.297656 0.18603,-0.599446 0.53743,-0.599446 0.35967,0 0.55811,0.289388 0.55811,0.591178 0,0.326595 -0.21911,0.545703 -0.44649,0.777214 z m 2.68407,0.06615 h 0.38447 v -0.235644 h -0.38447 v -1.632976 h -0.34727 l -0.97565,1.632976 v 0.235644 h 1.02113 v 0.657324 h 0.30179 z m -1.02113,-0.235644 c 0.19844,-0.33073 0.74001,-1.244369 0.74001,-1.463477 v 1.463477 z m 0,0"
       style="fill:#000000;fill-opacity:1;fill-rule:nonzero;stroke:none;stroke-width:0.352778"
       aria-label="3124" />
    <path
       id="path29"
       d="m 156.74186,96.918115 -0.47543,0.475423 v 0.248047 h 1.53376 v -0.272851 h -0.69866 c -0.0496,0 -0.0951,0.0041 -0.14056,0.0041 h -0.41755 c 0.11989,-0.107487 0.41341,-0.396875 0.5333,-0.508496 0.0744,-0.07028 0.26872,-0.231511 0.34313,-0.301791 0.17364,-0.173632 0.38034,-0.376204 0.38034,-0.702799 0,-0.44235 -0.31006,-0.826823 -0.81855,-0.826823 -0.43822,0 -0.65733,0.297656 -0.74828,0.628385 0.0455,0.06615 0.0661,0.09095 0.0744,0.103353 0.008,0.0083 0.0455,0.05788 0.0827,0.111621 0.0786,-0.297656 0.18603,-0.599446 0.53743,-0.599446 0.35967,0 0.55811,0.289388 0.55811,0.591178 0,0.326595 -0.21911,0.545703 -0.44649,0.777214 z m 2.40399,-1.885156 h -0.0744 c -0.22738,0.235645 -0.5457,0.243913 -0.73174,0.252181 v 0.223242 c 0.12816,-0.0041 0.31006,-0.0124 0.50436,-0.09095 v 2.000911 h -0.48369 v 0.223242 h 1.26918 v -0.223242 h -0.48369 z m 2.20451,1.951302 h 0.38447 v -0.235644 h -0.38447 v -1.632976 h -0.34726 l -0.97566,1.632976 v 0.235644 h 1.02113 v 0.657324 h 0.30179 z m -1.02112,-0.235644 c 0.19843,-0.33073 0.74,-1.244369 0.74,-1.463477 v 1.463477 z m 1.87068,-1.087273 c 0.11162,-0.268717 0.35967,-0.405143 0.59531,-0.405143 0.19844,0 0.38861,0.115755 0.38861,0.359668 0,0.235645 -0.1571,0.463021 -0.39274,0.516764 -0.0248,0.0041 -0.0289,0.0041 -0.30592,0.02894 v 0.231511 h 0.27698 c 0.41341,0 0.50023,0.359668 0.50023,0.549837 0,0.30179 -0.17777,0.549837 -0.47542,0.549837 -0.26459,0 -0.57051,-0.136426 -0.74001,-0.396875 l -0.0413,0.23151 c 0.28112,0.359668 0.63665,0.396875 0.78961,0.396875 0.47129,0 0.80616,-0.37207 0.80616,-0.777213 0,-0.347266 -0.26872,-0.587044 -0.52917,-0.669727 0.29352,-0.157096 0.42581,-0.417545 0.42581,-0.661458 0,-0.330729 -0.31832,-0.58291 -0.69866,-0.58291 -0.29766,0 -0.57878,0.152962 -0.74001,0.42168 z m 0,0"
       style="fill:#000000;fill-opacity:1;fill-rule:nonzero;stroke:none;stroke-width:0.352778"
       aria-label="2143" />
    <path
       id="path30"
       d="m 167.22081,95.032959 h -0.0744 c -0.22737,0.235645 -0.5457,0.243913 -0.73174,0.252181 v 0.223242 c 0.12816,-0.0041 0.31006,-0.0124 0.50437,-0.09095 v 2.000911 h -0.4837 v 0.223242 h 1.26918 v -0.223242 h -0.48369 z m 1.13068,0.628385 c 0.11162,-0.268717 0.35966,-0.405143 0.59531,-0.405143 0.19844,0 0.38861,0.115755 0.38861,0.359668 0,0.235645 -0.1571,0.463021 -0.39275,0.516764 -0.0248,0.0041 -0.0289,0.0041 -0.30592,0.02894 v 0.231511 h 0.27699 c 0.41341,0 0.50022,0.359668 0.50022,0.549837 0,0.30179 -0.17776,0.549837 -0.47542,0.549837 -0.26458,0 -0.57051,-0.136426 -0.74001,-0.396875 l -0.0413,0.23151 c 0.28112,0.359668 0.63666,0.396875 0.78962,0.396875 0.47129,0 0.80615,-0.37207 0.80615,-0.777213 0,-0.347266 -0.26872,-0.587044 -0.52917,-0.669727 0.29353,-0.157096 0.42582,-0.417545 0.42582,-0.661458 0,-0.330729 -0.31833,-0.58291 -0.69867,-0.58291 -0.29765,0 -0.57877,0.152962 -0.74,0.42168 z m 2.9993,1.322917 h 0.38447 v -0.235644 h -0.38447 v -1.632976 h -0.34727 l -0.97565,1.632976 v 0.235644 h 1.02113 v 0.657324 h 0.30179 z m -1.02113,-0.235644 c 0.19844,-0.33073 0.74001,-1.244369 0.74001,-1.463477 v 1.463477 z m 2.18488,0.169498 -0.47542,0.475423 v 0.248047 h 1.53375 v -0.272851 h -0.69866 c -0.0496,0 -0.0951,0.0041 -0.14056,0.0041 h -0.41755 c 0.11989,-0.107487 0.41341,-0.396875 0.5333,-0.508496 0.0744,-0.07028 0.26872,-0.231511 0.34313,-0.301791 0.17364,-0.173632 0.38034,-0.376204 0.38034,-0.702799 0,-0.44235 -0.31006,-0.826823 -0.81855,-0.826823 -0.43822,0 -0.65733,0.297656 -0.74828,0.628385 0.0455,0.06615 0.0661,0.09095 0.0744,0.103353 0.008,0.0083 0.0455,0.05788 0.0827,0.111621 0.0786,-0.297656 0.18603,-0.599446 0.53743,-0.599446 0.35967,0 0.55811,0.289388 0.55811,0.591178 0,0.326595 -0.21911,0.545703 -0.44648,0.777214 z m 0,0"
       style="fill:#000000;fill-opacity:1;fill-rule:nonzero;stroke:none;stroke-width:0.352778"
       aria-label="1342" />
    <path
       id="path31"
       d="m 177.22123,95.032959 h -0.0744 c -0.22737,0.235645 -0.5457,0.243913 -0.73174,0.252181 v 0.223242 c 0.12816,-0.0041 0.31006,-0.0124 0.50437,-0.09095 v 2.000911 h -0.48369 v 0.223242 h 1.26917 v -0.223242 h -0.48369 z m 2.20555,1.951302 h 0.38447 v -0.235644 h -0.38447 v -1.632976 h -0.34727 l -0.97565,1.632976 v 0.235644 h 1.02113 v 0.657324 h 0.30179 z m -1.02113,-0.235644 c 0.19844,-0.33073 0.74001,-1.244369 0.74001,-1.463477 v 1.463477 z m 2.18488,0.169498 -0.47542,0.475423 v 0.248047 h 1.53375 v -0.272851 h -0.69866 c -0.0496,0 -0.0951,0.0041 -0.14056,0.0041 h -0.41755 c 0.11989,-0.107487 0.41341,-0.396875 0.5333,-0.508496 0.0744,-0.07028 0.26872,-0.231511 0.34314,-0.301791 0.17363,-0.173632 0.38033,-0.376204 0.38033,-0.702799 0,-0.44235 -0.31005,-0.826823 -0.81855,-0.826823 -0.43822,0 -0.65733,0.297656 -0.74828,0.628385 0.0455,0.06615 0.0661,0.09095 0.0744,0.103353 0.008,0.0083 0.0455,0.05788 0.0827,0.111621 0.0786,-0.297656 0.18604,-0.599446 0.53744,-0.599446 0.35966,0 0.5581,0.289388 0.5581,0.591178 0,0.326595 -0.21911,0.545703 -0.44648,0.777214 z m 1.6092,-1.256771 c 0.11163,-0.268717 0.35967,-0.405143 0.59532,-0.405143 0.19843,0 0.3886,0.115755 0.3886,0.359668 0,0.235645 -0.15709,0.463021 -0.39274,0.516764 -0.0248,0.0041 -0.0289,0.0041 -0.30592,0.02894 v 0.231511 h 0.27698 c 0.41342,0 0.50023,0.359668 0.50023,0.549837 0,0.30179 -0.17776,0.549837 -0.47542,0.549837 -0.26458,0 -0.57051,-0.136426 -0.74001,-0.396875 l -0.0413,0.23151 c 0.28112,0.359668 0.63665,0.396875 0.78962,0.396875 0.47129,0 0.80615,-0.37207 0.80615,-0.777213 0,-0.347266 -0.26872,-0.587044 -0.52917,-0.669727 0.29352,-0.157096 0.42582,-0.417545 0.42582,-0.661458 0,-0.330729 -0.31833,-0.58291 -0.69867,-0.58291 -0.29766,0 -0.57877,0.152962 -0.74001,0.42168 z m 0,0"
       style="fill:#000000;fill-opacity:1;fill-rule:nonzero;stroke:none;stroke-width:0.352778"
       aria-label="1423" />
    <path
       id="path32"
       d="m 131.42764,85.661954 c 0.11162,-0.268718 0.35967,-0.405144 0.59531,-0.405144 0.19844,0 0.38861,0.115756 0.38861,0.359668 0,0.235645 -0.1571,0.463021 -0.39274,0.516765 -0.0248,0.0041 -0.0289,0.0041 -0.30593,0.02894 v 0.231511 h 0.27699 c 0.41341,0 0.50023,0.359668 0.50023,0.549837 0,0.30179 -0.17777,0.549837 -0.47543,0.549837 -0.26458,0 -0.5705,-0.136426 -0.74,-0.396875 l -0.0413,0.231511 c 0.28112,0.359668 0.63665,0.396875 0.78961,0.396875 0.47129,0 0.80616,-0.372071 0.80616,-0.777214 0,-0.347265 -0.26872,-0.587044 -0.52917,-0.669726 0.29352,-0.157097 0.42581,-0.417546 0.42581,-0.661459 0,-0.330729 -0.31832,-0.58291 -0.69866,-0.58291 -0.29766,0 -0.57878,0.152962 -0.74001,0.42168 z m 0,0"
       style="fill:#000000;fill-opacity:1;fill-rule:nonzero;stroke:none;stroke-width:0.352778"
       aria-label="3" />
    <path
       id="path33"
       d="m 133.66626,86.918724 -0.47542,0.475424 v 0.248046 h 1.53375 v -0.272851 h -0.69866 c -0.0496,0 -0.0951,0.0041 -0.14056,0.0041 h -0.41755 c 0.11989,-0.107487 0.41341,-0.396875 0.5333,-0.508496 0.0744,-0.07028 0.26872,-0.23151 0.34313,-0.30179 0.17364,-0.173633 0.38034,-0.376205 0.38034,-0.7028 0,-0.44235 -0.31006,-0.826823 -0.81855,-0.826823 -0.43822,0 -0.65733,0.297657 -0.74828,0.628386 0.0455,0.06615 0.0661,0.09095 0.0744,0.103353 0.008,0.0083 0.0455,0.05788 0.0827,0.111621 0.0785,-0.297657 0.18604,-0.599447 0.53743,-0.599447 0.35967,0 0.55811,0.289388 0.55811,0.591178 0,0.326595 -0.21911,0.545703 -0.44648,0.777214 z m 0,0"
       style="fill:#000000;fill-opacity:1;fill-rule:nonzero;stroke:none;stroke-width:0.352778"
       aria-label="2" />
    <path
       id="path34"
       d="m 136.07025,85.033568 h -0.0744 c -0.22738,0.235645 -0.5457,0.243913 -0.73174,0.252181 v 0.223242 c 0.12816,-0.0041 0.31006,-0.0124 0.50436,-0.09095 v 2.000911 h -0.48369 v 0.223242 h 1.26917 v -0.223242 h -0.48369 z m 0,0"
       style="fill:#000000;fill-opacity:1;fill-rule:nonzero;stroke:none;stroke-width:0.352778"
       aria-label="1" />
    <path
       id="path35"
       d="m 138.27477,86.98487 h 0.38447 v -0.235644 h -0.38447 v -1.632975 h -0.34727 l -0.97565,1.632975 v 0.235644 h 1.02113 v 0.657324 h 0.30179 z m -1.02113,-0.235644 c 0.19844,-0.330729 0.74001,-1.244369 0.74001,-1.463477 v 1.463477 z m 0,0"
       style="fill:#000000;fill-opacity:1;fill-rule:nonzero;stroke:none;stroke-width:0.352778"
       aria-label="4" />
    <path
       id="path36"
       d="m 141.74122,86.918724 -0.47542,0.475424 v 0.248046 h 1.53376 v -0.272851 h -0.69867 c -0.0496,0 -0.0951,0.0041 -0.14056,0.0041 h -0.41754 c 0.11989,-0.107487 0.41341,-0.396875 0.5333,-0.508496 0.0744,-0.07028 0.26871,-0.23151 0.34313,-0.30179 0.17363,-0.173633 0.38034,-0.376205 0.38034,-0.7028 0,-0.44235 -0.31006,-0.826823 -0.81856,-0.826823 -0.43821,0 -0.65732,0.297657 -0.74827,0.628386 0.0455,0.06615 0.0661,0.09095 0.0744,0.103353 0.008,0.0083 0.0455,0.05788 0.0827,0.111621 0.0786,-0.297657 0.18604,-0.599447 0.53744,-0.599447 0.35967,0 0.5581,0.289388 0.5581,0.591178 0,0.326595 -0.2191,0.545703 -0.44648,0.777214 z m 0,0"
       style="fill:#000000;fill-opacity:1;fill-rule:nonzero;stroke:none;stroke-width:0.352778"
       aria-label="2" />
    <path
       id="path37"
       d="m 143.35146,85.661954 c 0.11162,-0.268718 0.35967,-0.405144 0.59531,-0.405144 0.19844,0 0.38861,0.115756 0.38861,0.359668 0,0.235645 -0.1571,0.463021 -0.39274,0.516765 -0.0248,0.0041 -0.0289,0.0041 -0.30593,0.02894 v 0.231511 h 0.27699 c 0.41341,0 0.50023,0.359668 0.50023,0.549837 0,0.30179 -0.17777,0.549837 -0.47543,0.549837 -0.26458,0 -0.57051,-0.136426 -0.74,-0.396875 l -0.0413,0.231511 c 0.28112,0.359668 0.63666,0.396875 0.78962,0.396875 0.47129,0 0.80615,-0.372071 0.80615,-0.777214 0,-0.347265 -0.26871,-0.587044 -0.52916,-0.669726 0.29352,-0.157097 0.42581,-0.417546 0.42581,-0.661459 0,-0.330729 -0.31833,-0.58291 -0.69867,-0.58291 -0.29765,0 -0.57877,0.152962 -0.74,0.42168 z m 0,0"
       style="fill:#000000;fill-opacity:1;fill-rule:nonzero;stroke:none;stroke-width:0.352778"
       aria-label="3" />
    <path
       id="path38"
       d="m 146.35075,86.98487 h 0.38448 v -0.235644 h -0.38448 v -1.632975 h -0.34726 l -0.97565,1.632975 v 0.235644 h 1.02112 v 0.657324 h 0.30179 z m -1.02112,-0.235644 c 0.19843,-0.330729 0.74,-1.244369 0.74,-1.463477 v 1.463477 z m 0,0"
       style="fill:#000000;fill-opacity:1;fill-rule:nonzero;stroke:none;stroke-width:0.352778"
       aria-label="4" />
    <path
       id="path39"
       d="m 147.99407,85.033568 h -0.0744 c -0.22738,0.235645 -0.54571,0.243913 -0.73174,0.252181 v 0.223242 c 0.12816,-0.0041 0.31006,-0.0124 0.50436,-0.09095 v 2.000911 h -0.48369 v 0.223242 h 1.26917 v -0.223242 h -0.48369 z m 0,0"
       style="fill:#000000;fill-opacity:1;fill-rule:nonzero;stroke:none;stroke-width:0.352778"
       aria-label="1" />
    <path
       id="path40"
       d="m 151.42745,85.661954 c 0.11162,-0.268718 0.35967,-0.405144 0.59532,-0.405144 0.19843,0 0.3886,0.115756 0.3886,0.359668 0,0.235645 -0.15709,0.463021 -0.39274,0.516765 -0.0248,0.0041 -0.0289,0.0041 -0.30592,0.02894 v 0.231511 h 0.27698 c 0.41341,0 0.50023,0.359668 0.50023,0.549837 0,0.30179 -0.17777,0.549837 -0.47542,0.549837 -0.26459,0 -0.57051,-0.136426 -0.74001,-0.396875 l -0.0413,0.231511 c 0.28112,0.359668 0.63665,0.396875 0.78962,0.396875 0.47128,0 0.80615,-0.372071 0.80615,-0.777214 0,-0.347265 -0.26872,-0.587044 -0.52917,-0.669726 0.29352,-0.157097 0.42581,-0.417546 0.42581,-0.661459 0,-0.330729 -0.31832,-0.58291 -0.69866,-0.58291 -0.29766,0 -0.57878,0.152962 -0.74001,0.42168 z m 2.71818,-0.628386 h -0.0744 c -0.22738,0.235645 -0.5457,0.243913 -0.73174,0.252181 v 0.223242 c 0.12816,-0.0041 0.31006,-0.0124 0.50436,-0.09095 v 2.000911 h -0.48369 v 0.223242 h 1.26917 v -0.223242 h -0.48369 z m 2.20555,1.951302 h 0.38448 v -0.235644 h -0.38448 v -1.632975 h -0.34726 l -0.97565,1.632975 v 0.235644 h 1.02112 v 0.657324 h 0.30179 z m -1.02112,-0.235644 c 0.19843,-0.330729 0.74,-1.244369 0.74,-1.463477 v 1.463477 z m 2.18488,0.169498 -0.47543,0.475424 v 0.248046 h 1.53376 v -0.272851 h -0.69867 c -0.0496,0 -0.0951,0.0041 -0.14056,0.0041 h -0.41754 c 0.11989,-0.107487 0.41341,-0.396875 0.5333,-0.508496 0.0744,-0.07028 0.26872,-0.23151 0.34313,-0.30179 0.17363,-0.173633 0.38034,-0.376205 0.38034,-0.7028 0,-0.44235 -0.31006,-0.826823 -0.81855,-0.826823 -0.43822,0 -0.65733,0.297657 -0.74828,0.628386 0.0455,0.06615 0.0661,0.09095 0.0744,0.103353 0.008,0.0083 0.0455,0.05788 0.0827,0.111621 0.0785,-0.297657 0.18603,-0.599447 0.53743,-0.599447 0.35967,0 0.55811,0.289388 0.55811,0.591178 0,0.326595 -0.21911,0.545703 -0.44649,0.777214 z m 0,0"
       style="fill:#000000;fill-opacity:1;fill-rule:nonzero;stroke:none;stroke-width:0.352778"
       aria-label="3142" />
    <path
       id="path41"
       d="m 161.74207,86.918724 -0.47542,0.475424 v 0.248046 h 1.53375 v -0.272851 h -0.69866 c -0.0496,0 -0.0951,0.0041 -0.14056,0.0041 h -0.41755 c 0.11989,-0.107487 0.41341,-0.396875 0.5333,-0.508496 0.0744,-0.07028 0.26872,-0.23151 0.34313,-0.30179 0.17364,-0.173633 0.38034,-0.376205 0.38034,-0.7028 0,-0.44235 -0.31006,-0.826823 -0.81855,-0.826823 -0.43822,0 -0.65733,0.297657 -0.74828,0.628386 0.0455,0.06615 0.0662,0.09095 0.0744,0.103353 0.008,0.0083 0.0455,0.05788 0.0827,0.111621 0.0786,-0.297657 0.18604,-0.599447 0.53744,-0.599447 0.35966,0 0.5581,0.289388 0.5581,0.591178 0,0.326595 -0.21911,0.545703 -0.44648,0.777214 z m 2.68407,0.06615 h 0.38448 V 86.74923 h -0.38448 v -1.632975 h -0.34726 l -0.97565,1.632975 v 0.235644 h 1.02112 v 0.657324 h 0.30179 z m -1.02112,-0.235644 c 0.19843,-0.330729 0.74,-1.244369 0.74,-1.463477 v 1.463477 z m 2.66443,-1.715658 h -0.0744 c -0.22738,0.235645 -0.5457,0.243913 -0.73174,0.252181 v 0.223242 c 0.12816,-0.0041 0.31006,-0.0124 0.50436,-0.09095 v 2.000911 h -0.48369 v 0.223242 h 1.26918 v -0.223242 h -0.4837 z m 1.13068,0.628386 c 0.11163,-0.268718 0.35967,-0.405144 0.59532,-0.405144 0.19843,0 0.3886,0.115756 0.3886,0.359668 0,0.235645 -0.15709,0.463021 -0.39274,0.516765 -0.0248,0.0041 -0.0289,0.0041 -0.30592,0.02894 v 0.231511 h 0.27698 c 0.41342,0 0.50023,0.359668 0.50023,0.549837 0,0.30179 -0.17777,0.549837 -0.47542,0.549837 -0.26458,0 -0.57051,-0.136426 -0.74001,-0.396875 l -0.0413,0.231511 c 0.28112,0.359668 0.63665,0.396875 0.78962,0.396875 0.47129,0 0.80615,-0.372071 0.80615,-0.777214 0,-0.347265 -0.26872,-0.587044 -0.52917,-0.669726 0.29352,-0.157097 0.42582,-0.417546 0.42582,-0.661459 0,-0.330729 -0.31833,-0.58291 -0.69867,-0.58291 -0.29766,0 -0.57878,0.152962 -0.74001,0.42168 z m 0,0"
       style="fill:#000000;fill-opacity:1;fill-rule:nonzero;stroke:none;stroke-width:0.352778"
       aria-label="2413" />
    <path
       id="path42"
       d="m 172.50213,86.98487 h 0.38448 v -0.235644 h -0.38448 v -1.632975 h -0.34726 l -0.97565,1.632975 v 0.235644 h 1.02112 v 0.657324 h 0.30179 z m -1.02112,-0.235644 c 0.19844,-0.330729 0.74001,-1.244369 0.74001,-1.463477 v 1.463477 z m 2.66444,-1.715658 h -0.0744 c -0.22737,0.235645 -0.5457,0.243913 -0.73174,0.252181 v 0.223242 c 0.12816,-0.0041 0.31006,-0.0124 0.50437,-0.09095 v 2.000911 h -0.4837 v 0.223242 h 1.26918 v -0.223242 h -0.48369 z m 1.44487,1.885156 -0.47542,0.475424 v 0.248046 h 1.53375 v -0.272851 h -0.69866 c -0.0496,0 -0.0951,0.0041 -0.14056,0.0041 h -0.41755 c 0.11989,-0.107487 0.41341,-0.396875 0.5333,-0.508496 0.0744,-0.07028 0.26872,-0.23151 0.34313,-0.30179 0.17364,-0.173633 0.38034,-0.376205 0.38034,-0.7028 0,-0.44235 -0.31006,-0.826823 -0.81855,-0.826823 -0.43822,0 -0.65733,0.297657 -0.74828,0.628386 0.0455,0.06615 0.0661,0.09095 0.0744,0.103353 0.008,0.0083 0.0455,0.05788 0.0827,0.111621 0.0785,-0.297657 0.18603,-0.599447 0.53743,-0.599447 0.35967,0 0.55811,0.289388 0.55811,0.591178 0,0.326595 -0.21911,0.545703 -0.44649,0.777214 z m 1.61024,-1.25677 c 0.11162,-0.268718 0.35966,-0.405144 0.59531,-0.405144 0.19844,0 0.3886,0.115756 0.3886,0.359668 0,0.235645 -0.15709,0.463021 -0.39274,0.516765 -0.0248,0.0041 -0.0289,0.0041 -0.30592,0.02894 v 0.231511 h 0.27699 c 0.41341,0 0.50022,0.359668 0.50022,0.549837 0,0.30179 -0.17776,0.549837 -0.47542,0.549837 -0.26458,0 -0.57051,-0.136426 -0.74001,-0.396875 l -0.0413,0.231511 c 0.28112,0.359668 0.63666,0.396875 0.78962,0.396875 0.47129,0 0.80615,-0.372071 0.80615,-0.777214 0,-0.347265 -0.26872,-0.587044 -0.52917,-0.669726 0.29353,-0.157097 0.42582,-0.417546 0.42582,-0.661459 0,-0.330729 -0.31833,-0.58291 -0.69867,-0.58291 -0.29765,0 -0.57877,0.152962 -0.74,0.42168 z m 0,0"
       style="fill:#000000;fill-opacity:1;fill-rule:nonzero;stroke:none;stroke-width:0.352778"
       aria-label="4123" />
    <path
       id="path43"
       d="m 182.22144,85.033568 h -0.0744 c -0.22738,0.235645 -0.54571,0.243913 -0.73174,0.252181 v 0.223242 c 0.12815,-0.0041 0.31006,-0.0124 0.50436,-0.09095 v 2.000911 h -0.48369 v 0.223242 h 1.26917 v -0.223242 h -0.48369 z m 2.20555,1.951302 h 0.38447 v -0.235644 h -0.38447 v -1.632975 h -0.34727 l -0.97565,1.632975 v 0.235644 h 1.02113 v 0.657324 h 0.30179 z m -1.02113,-0.235644 c 0.19844,-0.330729 0.74001,-1.244369 0.74001,-1.463477 v 1.463477 z m 1.86966,-1.087272 c 0.11162,-0.268718 0.35966,-0.405144 0.59531,-0.405144 0.19844,0 0.38861,0.115756 0.38861,0.359668 0,0.235645 -0.1571,0.463021 -0.39275,0.516765 -0.0248,0.0041 -0.0289,0.0041 -0.30592,0.02894 v 0.231511 h 0.27699 c 0.41341,0 0.50022,0.359668 0.50022,0.549837 0,0.30179 -0.17776,0.549837 -0.47542,0.549837 -0.26458,0 -0.57051,-0.136426 -0.74001,-0.396875 l -0.0413,0.231511 c 0.28112,0.359668 0.63666,0.396875 0.78962,0.396875 0.47129,0 0.80615,-0.372071 0.80615,-0.777214 0,-0.347265 -0.26872,-0.587044 -0.52917,-0.669726 0.29353,-0.157097 0.42582,-0.417546 0.42582,-0.661459 0,-0.330729 -0.31833,-0.58291 -0.69867,-0.58291 -0.29765,0 -0.57877,0.152962 -0.74,0.42168 z m 2.23862,1.25677 -0.47542,0.475424 v 0.248046 h 1.53375 v -0.272851 h -0.69866 c -0.0496,0 -0.0951,0.0041 -0.14056,0.0041 h -0.41755 c 0.11989,-0.107487 0.41341,-0.396875 0.5333,-0.508496 0.0744,-0.07028 0.26872,-0.23151 0.34313,-0.30179 0.17364,-0.173633 0.38034,-0.376205 0.38034,-0.7028 0,-0.44235 -0.31006,-0.826823 -0.81855,-0.826823 -0.43822,0 -0.65733,0.297657 -0.74828,0.628386 0.0455,0.06615 0.0661,0.09095 0.0744,0.103353 0.008,0.0083 0.0455,0.05788 0.0827,0.111621 0.0785,-0.297657 0.18603,-0.599447 0.53743,-0.599447 0.35967,0 0.55811,0.289388 0.55811,0.591178 0,0.326595 -0.21911,0.545703 -0.44648,0.777214 z m 0,0"
       style="fill:#000000;fill-opacity:1;fill-rule:nonzero;stroke:none;stroke-width:0.352778"
       aria-label="1432" />
    <path
       id="path44"
       d="m 136.42785,75.661531 c 0.11162,-0.268717 0.35967,-0.405143 0.59532,-0.405143 0.19843,0 0.3886,0.115755 0.3886,0.359668 0,0.235644 -0.15709,0.463021 -0.39274,0.516764 -0.0248,0.0041 -0.0289,0.0041 -0.30592,0.02894 v 0.23151 h 0.27698 c 0.41341,0 0.50023,0.359668 0.50023,0.549838 0,0.30179 -0.17777,0.549837 -0.47542,0.549837 -0.26459,0 -0.57051,-0.136426 -0.74001,-0.396875 l -0.0413,0.23151 c 0.28112,0.359668 0.63665,0.396875 0.78962,0.396875 0.47128,0 0.80615,-0.37207 0.80615,-0.777213 0,-0.347266 -0.26872,-0.587045 -0.52917,-0.669727 0.29352,-0.157096 0.42581,-0.417545 0.42581,-0.661458 0,-0.330729 -0.31832,-0.58291 -0.69866,-0.58291 -0.29766,0 -0.57878,0.152962 -0.74001,0.421679 z m 0,0"
       style="fill:#000000;fill-opacity:1;fill-rule:nonzero;stroke:none;stroke-width:0.352778"
       aria-label="3" />
    <path
       id="path45"
       d="m 138.66544,76.918302 -0.47542,0.475423 v 0.248047 h 1.53375 V 77.36892 h -0.69866 c -0.0496,0 -0.0951,0.0041 -0.14056,0.0041 H 138.467 c 0.11989,-0.107487 0.41341,-0.396875 0.5333,-0.508497 0.0744,-0.07028 0.26872,-0.23151 0.34313,-0.30179 0.17364,-0.173633 0.38034,-0.376204 0.38034,-0.702799 0,-0.442351 -0.31006,-0.826823 -0.81855,-0.826823 -0.43822,0 -0.65733,0.297656 -0.74828,0.628385 0.0455,0.06615 0.0662,0.09095 0.0744,0.103353 0.008,0.0083 0.0455,0.05788 0.0827,0.111621 0.0786,-0.297656 0.18603,-0.599446 0.53743,-0.599446 0.35967,0 0.55811,0.289388 0.55811,0.591178 0,0.326595 -0.21911,0.545703 -0.44649,0.777213 z m 2.68511,0.06615 h 0.38447 v -0.235645 h -0.38447 v -1.632975 h -0.34727 l -0.97565,1.632975 v 0.235645 h 1.02113 v 0.657324 h 0.30179 z m -1.02113,-0.235645 c 0.19844,-0.330729 0.74001,-1.244368 0.74001,-1.463476 v 1.463476 z m 0,0"
       style="fill:#000000;fill-opacity:1;fill-rule:nonzero;stroke:none;stroke-width:0.352778"
       aria-label="24" />
    <path
       id="path46"
       d="m 142.99386,75.033146 h -0.0744 c -0.22737,0.235644 -0.5457,0.243913 -0.73173,0.252181 v 0.223242 c 0.12815,-0.0041 0.31005,-0.0124 0.50436,-0.09095 v 2.000912 h -0.48369 v 0.223242 h 1.26917 V 77.41853 h -0.48369 z m 0,0"
       style="fill:#000000;fill-opacity:1;fill-rule:nonzero;stroke:none;stroke-width:0.352778"
       aria-label="1" />
    <path
       id="path47"
       d="m 146.74143,76.918302 -0.47543,0.475423 v 0.248047 h 1.53376 V 77.36892 h -0.69867 c -0.0496,0 -0.0951,0.0041 -0.14056,0.0041 h -0.41754 c 0.11989,-0.107487 0.41341,-0.396875 0.5333,-0.508497 0.0744,-0.07028 0.26872,-0.23151 0.34313,-0.30179 0.17363,-0.173633 0.38034,-0.376204 0.38034,-0.702799 0,-0.442351 -0.31006,-0.826823 -0.81856,-0.826823 -0.43821,0 -0.65732,0.297656 -0.74827,0.628385 0.0455,0.06615 0.0661,0.09095 0.0744,0.103353 0.008,0.0083 0.0455,0.05788 0.0827,0.111621 0.0785,-0.297656 0.18603,-0.599446 0.53743,-0.599446 0.35967,0 0.55811,0.289388 0.55811,0.591178 0,0.326595 -0.21911,0.545703 -0.44649,0.777213 z m 2.6851,0.06615 h 0.38448 v -0.235645 h -0.38448 v -1.632975 h -0.34726 l -0.97565,1.632975 v 0.235645 h 1.02112 v 0.657324 h 0.30179 z m -1.02112,-0.235645 c 0.19843,-0.330729 0.74,-1.244368 0.74,-1.463476 v 1.463476 z m 0,0"
       style="fill:#000000;fill-opacity:1;fill-rule:nonzero;stroke:none;stroke-width:0.352778"
       aria-label="24" />
    <path
       id="path48"
       d="m 150.2761,75.661531 c 0.11162,-0.268717 0.35966,-0.405143 0.59531,-0.405143 0.19844,0 0.38861,0.115755 0.38861,0.359668 0,0.235644 -0.1571,0.463021 -0.39275,0.516764 -0.0248,0.0041 -0.0289,0.0041 -0.30592,0.02894 v 0.23151 h 0.27699 c 0.41341,0 0.50022,0.359668 0.50022,0.549838 0,0.30179 -0.17776,0.549837 -0.47542,0.549837 -0.26458,0 -0.57051,-0.136426 -0.74001,-0.396875 l -0.0413,0.23151 c 0.28112,0.359668 0.63666,0.396875 0.78962,0.396875 0.47129,0 0.80615,-0.37207 0.80615,-0.777213 0,-0.347266 -0.26872,-0.587045 -0.52917,-0.669727 0.29353,-0.157096 0.42582,-0.417545 0.42582,-0.661458 0,-0.330729 -0.31833,-0.58291 -0.69867,-0.58291 -0.29765,0 -0.57877,0.152962 -0.74,0.421679 z m 2.71714,-0.628385 h -0.0744 c -0.22738,0.235644 -0.5457,0.243913 -0.73174,0.252181 v 0.223242 c 0.12816,-0.0041 0.31006,-0.0124 0.50436,-0.09095 v 2.000912 h -0.48369 v 0.223242 h 1.26917 V 77.41853 h -0.48369 z m 0,0"
       style="fill:#000000;fill-opacity:1;fill-rule:nonzero;stroke:none;stroke-width:0.352778"
       aria-label="31" />
    <path
       id="path49"
       d="m 156.42767,75.661531 c 0.11162,-0.268717 0.35966,-0.405143 0.59531,-0.405143 0.19843,0 0.3886,0.115755 0.3886,0.359668 0,0.235644 -0.15709,0.463021 -0.39274,0.516764 -0.0248,0.0041 -0.0289,0.0041 -0.30592,0.02894 v 0.23151 h 0.27698 c 0.41342,0 0.50023,0.359668 0.50023,0.549838 0,0.30179 -0.17776,0.549837 -0.47542,0.549837 -0.26458,0 -0.57051,-0.136426 -0.74001,-0.396875 l -0.0413,0.23151 c 0.28112,0.359668 0.63666,0.396875 0.78962,0.396875 0.47129,0 0.80615,-0.37207 0.80615,-0.777213 0,-0.347266 -0.26872,-0.587045 -0.52917,-0.669727 0.29353,-0.157096 0.42582,-0.417545 0.42582,-0.661458 0,-0.330729 -0.31833,-0.58291 -0.69867,-0.58291 -0.29765,0 -0.57877,0.152962 -0.74,0.421679 z m 2.99929,1.322917 h 0.38448 v -0.235645 h -0.38448 v -1.632975 h -0.34726 l -0.97565,1.632975 v 0.235645 h 1.02112 v 0.657324 h 0.30179 z m -1.02112,-0.235645 c 0.19844,-0.330729 0.74001,-1.244368 0.74001,-1.463476 v 1.463476 z m 2.6634,-1.715657 h -0.0744 c -0.22738,0.235644 -0.54571,0.243913 -0.73174,0.252181 v 0.223242 c 0.12816,-0.0041 0.31006,-0.0124 0.50436,-0.09095 v 2.000912 h -0.48369 v 0.223242 h 1.26917 V 77.41853 h -0.48369 z m 1.44487,1.885156 -0.47542,0.475423 v 0.248047 h 1.53376 V 77.36892 h -0.69867 c -0.0496,0 -0.0951,0.0041 -0.14056,0.0041 h -0.41754 c 0.11989,-0.107487 0.41341,-0.396875 0.5333,-0.508497 0.0744,-0.07028 0.26872,-0.23151 0.34313,-0.30179 0.17363,-0.173633 0.38034,-0.376204 0.38034,-0.702799 0,-0.442351 -0.31006,-0.826823 -0.81856,-0.826823 -0.43821,0 -0.65732,0.297656 -0.74827,0.628385 0.0455,0.06615 0.0661,0.09095 0.0744,0.103353 0.008,0.0083 0.0455,0.05788 0.0827,0.111621 0.0785,-0.297656 0.18603,-0.599446 0.53743,-0.599446 0.35967,0 0.55811,0.289388 0.55811,0.591178 0,0.326595 -0.21911,0.545703 -0.44649,0.777213 z m 0,0"
       style="fill:#000000;fill-opacity:1;fill-rule:nonzero;stroke:none;stroke-width:0.352778"
       aria-label="3412" />
    <path
       id="path50"
       d="m 167.50193,76.984448 h 0.38447 v -0.235645 h -0.38447 v -1.632975 h -0.34727 l -0.97565,1.632975 v 0.235645 h 1.02113 v 0.657324 h 0.30179 z m -1.02113,-0.235645 c 0.19844,-0.330729 0.74001,-1.244368 0.74001,-1.463476 v 1.463476 z m 2.18488,0.169499 -0.47542,0.475423 v 0.248047 h 1.53375 V 77.36892 h -0.69866 c -0.0496,0 -0.0951,0.0041 -0.14056,0.0041 h -0.41755 c 0.11989,-0.107487 0.41341,-0.396875 0.5333,-0.508497 0.0744,-0.07028 0.26872,-0.23151 0.34313,-0.30179 0.17364,-0.173633 0.38034,-0.376204 0.38034,-0.702799 0,-0.442351 -0.31006,-0.826823 -0.81855,-0.826823 -0.43822,0 -0.65733,0.297656 -0.74828,0.628385 0.0455,0.06615 0.0661,0.09095 0.0744,0.103353 0.008,0.0083 0.0455,0.05788 0.0827,0.111621 0.0786,-0.297656 0.18603,-0.599446 0.53743,-0.599446 0.35967,0 0.55811,0.289388 0.55811,0.591178 0,0.326595 -0.21911,0.545703 -0.44649,0.777213 z m 2.40399,-1.885156 h -0.0744 c -0.22737,0.235644 -0.5457,0.243913 -0.73174,0.252181 v 0.223242 c 0.12816,-0.0041 0.31006,-0.0124 0.50437,-0.09095 v 2.000912 h -0.4837 v 0.223242 h 1.26918 V 77.41853 h -0.48369 z m 1.13068,0.628385 c 0.11162,-0.268717 0.35966,-0.405143 0.59531,-0.405143 0.19844,0 0.38861,0.115755 0.38861,0.359668 0,0.235644 -0.1571,0.463021 -0.39275,0.516764 -0.0248,0.0041 -0.0289,0.0041 -0.30592,0.02894 v 0.23151 h 0.27699 c 0.41341,0 0.50022,0.359668 0.50022,0.549838 0,0.30179 -0.17776,0.549837 -0.47542,0.549837 -0.26458,0 -0.57051,-0.136426 -0.74001,-0.396875 l -0.0413,0.23151 c 0.28112,0.359668 0.63666,0.396875 0.78962,0.396875 0.47129,0 0.80615,-0.37207 0.80615,-0.777213 0,-0.347266 -0.26872,-0.587045 -0.52917,-0.669727 0.29353,-0.157096 0.42582,-0.417545 0.42582,-0.661458 0,-0.330729 -0.31833,-0.58291 -0.69867,-0.58291 -0.29765,0 -0.57877,0.152962 -0.74,0.421679 z m 0,0"
       style="fill:#000000;fill-opacity:1;fill-rule:nonzero;stroke:none;stroke-width:0.352778"
       aria-label="4213" />
    <path
       id="path51"
       d="m 177.50235,76.984448 h 0.38447 v -0.235645 h -0.38447 v -1.632975 h -0.34727 l -0.97565,1.632975 v 0.235645 h 1.02113 v 0.657324 h 0.30179 z m -1.02113,-0.235645 c 0.19844,-0.330729 0.74001,-1.244368 0.74001,-1.463476 v 1.463476 z m 2.66444,-1.715657 h -0.0744 c -0.22737,0.235644 -0.5457,0.243913 -0.73173,0.252181 v 0.223242 c 0.12815,-0.0041 0.31005,-0.0124 0.50436,-0.09095 v 2.000912 h -0.48369 v 0.223242 h 1.26917 V 77.41853 h -0.48369 z m 1.13068,0.628385 c 0.11162,-0.268717 0.35967,-0.405143 0.59531,-0.405143 0.19844,0 0.38861,0.115755 0.38861,0.359668 0,0.235644 -0.1571,0.463021 -0.39274,0.516764 -0.0248,0.0041 -0.0289,0.0041 -0.30593,0.02894 v 0.23151 h 0.27699 c 0.41341,0 0.50023,0.359668 0.50023,0.549838 0,0.30179 -0.17777,0.549837 -0.47543,0.549837 -0.26458,0 -0.57051,-0.136426 -0.74,-0.396875 l -0.0413,0.23151 c 0.28112,0.359668 0.63666,0.396875 0.78962,0.396875 0.47129,0 0.80615,-0.37207 0.80615,-0.777213 0,-0.347266 -0.26872,-0.587045 -0.52916,-0.669727 0.29352,-0.157096 0.42581,-0.417545 0.42581,-0.661458 0,-0.330729 -0.31833,-0.58291 -0.69867,-0.58291 -0.29765,0 -0.57877,0.152962 -0.74,0.421679 z m 2.23759,1.256771 -0.47543,0.475423 v 0.248047 h 1.53376 V 77.36892 h -0.69866 c -0.0496,0 -0.0951,0.0041 -0.14056,0.0041 h -0.41755 c 0.11989,-0.107487 0.41341,-0.396875 0.5333,-0.508497 0.0744,-0.07028 0.26872,-0.23151 0.34313,-0.30179 0.17363,-0.173633 0.38034,-0.376204 0.38034,-0.702799 0,-0.442351 -0.31006,-0.826823 -0.81855,-0.826823 -0.43822,0 -0.65733,0.297656 -0.74828,0.628385 0.0455,0.06615 0.0662,0.09095 0.0744,0.103353 0.008,0.0083 0.0455,0.05788 0.0827,0.111621 0.0786,-0.297656 0.18603,-0.599446 0.53743,-0.599446 0.35967,0 0.55811,0.289388 0.55811,0.591178 0,0.326595 -0.21911,0.545703 -0.44649,0.777213 z m 0,0"
       style="fill:#000000;fill-opacity:1;fill-rule:nonzero;stroke:none;stroke-width:0.352778"
       aria-label="4132" />
    <path
       id="path52"
       d="m 146.42723,65.661108 c 0.11162,-0.268718 0.35967,-0.405143 0.59532,-0.405143 0.19843,0 0.3886,0.115755 0.3886,0.359668 0,0.235644 -0.15709,0.46302 -0.39274,0.516764 -0.0248,0.0041 -0.0289,0.0041 -0.30592,0.02894 v 0.23151 h 0.27698 c 0.41341,0 0.50023,0.359668 0.50023,0.549837 0,0.301791 -0.17777,0.549837 -0.47542,0.549837 -0.26459,0 -0.57051,-0.136425 -0.74001,-0.396875 l -0.0413,0.231511 c 0.28112,0.359668 0.63665,0.396875 0.78962,0.396875 0.47129,0 0.80615,-0.37207 0.80615,-0.777214 0,-0.347265 -0.26872,-0.587044 -0.52917,-0.669726 0.29352,-0.157097 0.42582,-0.417546 0.42582,-0.661458 0,-0.33073 -0.31833,-0.582911 -0.69867,-0.582911 -0.29766,0 -0.57878,0.152963 -0.74001,0.42168 z m 0,0"
       style="fill:#000000;fill-opacity:1;fill-rule:nonzero;stroke:none;stroke-width:0.352778"
       aria-label="3" />
    <path
       id="path53"
       d="m 149.42654,66.984024 h 0.38447 V 66.74838 h -0.38447 v -1.632975 h -0.34727 l -0.97565,1.632975 v 0.235644 h 1.02113 v 0.657325 h 0.30179 z m -1.02113,-0.235644 c 0.19844,-0.330729 0.74001,-1.244368 0.74001,-1.463477 v 1.463477 z m 2.18488,0.169499 -0.47542,0.475423 v 0.248047 h 1.53376 v -0.272852 h -0.69867 c -0.0496,0 -0.0951,0.0041 -0.14056,0.0041 h -0.41754 c 0.11988,-0.107487 0.41341,-0.396875 0.5333,-0.508496 0.0744,-0.07028 0.26871,-0.23151 0.34313,-0.30179 0.17363,-0.173633 0.38034,-0.376205 0.38034,-0.7028 0,-0.44235 -0.31006,-0.826822 -0.81856,-0.826822 -0.43821,0 -0.65732,0.297656 -0.74827,0.628385 0.0455,0.06615 0.0661,0.09095 0.0744,0.103353 0.008,0.0083 0.0455,0.05788 0.0827,0.111621 0.0786,-0.297656 0.18604,-0.599447 0.53744,-0.599447 0.35967,0 0.5581,0.289388 0.5581,0.591179 0,0.326595 -0.2191,0.545703 -0.44648,0.777213 z m 0,0"
       style="fill:#000000;fill-opacity:1;fill-rule:nonzero;stroke:none;stroke-width:0.352778"
       aria-label="42" />
    <path
       id="path54"
       d="m 152.99325,65.032722 h -0.0744 c -0.22737,0.235645 -0.5457,0.243913 -0.73173,0.252181 v 0.223243 c 0.12815,-0.0041 0.31006,-0.0124 0.50436,-0.09095 v 2.000911 h -0.48369 v 0.223243 h 1.26917 v -0.223243 h -0.48369 z m 0,0"
       style="fill:#000000;fill-opacity:1;fill-rule:nonzero;stroke:none;stroke-width:0.352778"
       aria-label="1" />
    <path
       id="path55"
       d="m 157.50253,66.984024 h 0.38448 V 66.74838 h -0.38448 v -1.632975 h -0.34726 l -0.97565,1.632975 v 0.235644 h 1.02112 v 0.657325 h 0.30179 z m -1.02112,-0.235644 c 0.19844,-0.330729 0.74,-1.244368 0.74,-1.463477 v 1.463477 z m 2.18488,0.169499 -0.47543,0.475423 v 0.248047 h 1.53376 v -0.272852 h -0.69866 c -0.0496,0 -0.0951,0.0041 -0.14056,0.0041 h -0.41755 c 0.11989,-0.107487 0.41341,-0.396875 0.5333,-0.508496 0.0744,-0.07028 0.26872,-0.23151 0.34313,-0.30179 0.17364,-0.173633 0.38034,-0.376205 0.38034,-0.7028 0,-0.44235 -0.31006,-0.826822 -0.81855,-0.826822 -0.43822,0 -0.65733,0.297656 -0.74828,0.628385 0.0455,0.06615 0.0661,0.09095 0.0744,0.103353 0.008,0.0083 0.0455,0.05788 0.0827,0.111621 0.0786,-0.297656 0.18603,-0.599447 0.53743,-0.599447 0.35967,0 0.55811,0.289388 0.55811,0.591179 0,0.326595 -0.21911,0.545703 -0.44649,0.777213 z m 0,0"
       style="fill:#000000;fill-opacity:1;fill-rule:nonzero;stroke:none;stroke-width:0.352778"
       aria-label="42" />
    <path
       id="path56"
       d="m 160.27548,65.661108 c 0.11163,-0.268718 0.35967,-0.405143 0.59532,-0.405143 0.19843,0 0.3886,0.115755 0.3886,0.359668 0,0.235644 -0.15709,0.46302 -0.39274,0.516764 -0.0248,0.0041 -0.0289,0.0041 -0.30592,0.02894 v 0.23151 h 0.27698 c 0.41342,0 0.50023,0.359668 0.50023,0.549837 0,0.301791 -0.17777,0.549837 -0.47542,0.549837 -0.26458,0 -0.57051,-0.136425 -0.74001,-0.396875 l -0.0413,0.231511 c 0.28112,0.359668 0.63665,0.396875 0.78962,0.396875 0.47129,0 0.80615,-0.37207 0.80615,-0.777214 0,-0.347265 -0.26872,-0.587044 -0.52917,-0.669726 0.29352,-0.157097 0.42582,-0.417546 0.42582,-0.661458 0,-0.33073 -0.31833,-0.582911 -0.69867,-0.582911 -0.29766,0 -0.57878,0.152963 -0.74001,0.42168 z m 2.71818,-0.628386 h -0.0744 c -0.22738,0.235645 -0.5457,0.243913 -0.73174,0.252181 v 0.223243 c 0.12816,-0.0041 0.31006,-0.0124 0.50436,-0.09095 v 2.000911 h -0.48369 v 0.223243 h 1.26918 v -0.223243 h -0.4837 z m 0,0"
       style="fill:#000000;fill-opacity:1;fill-rule:nonzero;stroke:none;stroke-width:0.352778"
       aria-label="31" />
    <path
       id="path57"
       d="m 167.50193,66.984024 h 0.38447 V 66.74838 h -0.38447 v -1.632975 h -0.34727 l -0.97565,1.632975 v 0.235644 h 1.02113 v 0.657325 h 0.30179 z M 166.4808,66.74838 c 0.19844,-0.330729 0.74001,-1.244368 0.74001,-1.463477 v 1.463477 z m 1.87069,-1.087272 c 0.11162,-0.268718 0.35966,-0.405143 0.59531,-0.405143 0.19844,0 0.38861,0.115755 0.38861,0.359668 0,0.235644 -0.1571,0.46302 -0.39275,0.516764 -0.0248,0.0041 -0.0289,0.0041 -0.30592,0.02894 v 0.23151 h 0.27699 c 0.41341,0 0.50022,0.359668 0.50022,0.549837 0,0.301791 -0.17776,0.549837 -0.47542,0.549837 -0.26458,0 -0.57051,-0.136425 -0.74001,-0.396875 l -0.0413,0.231511 c 0.28112,0.359668 0.63666,0.396875 0.78962,0.396875 0.47129,0 0.80615,-0.37207 0.80615,-0.777214 0,-0.347265 -0.26872,-0.587044 -0.52917,-0.669726 0.29353,-0.157097 0.42582,-0.417546 0.42582,-0.661458 0,-0.33073 -0.31833,-0.582911 -0.69867,-0.582911 -0.29765,0 -0.57877,0.152963 -0.74,0.42168 z m 2.71818,-0.628386 h -0.0744 c -0.22737,0.235645 -0.5457,0.243913 -0.73174,0.252181 v 0.223243 c 0.12816,-0.0041 0.31006,-0.0124 0.50437,-0.09095 v 2.000911 h -0.4837 v 0.223243 h 1.26918 v -0.223243 h -0.48369 z m 1.44487,1.885157 -0.47542,0.475423 v 0.248047 h 1.53375 v -0.272852 h -0.69866 c -0.0496,0 -0.0951,0.0041 -0.14056,0.0041 h -0.41755 c 0.11989,-0.107487 0.41341,-0.396875 0.5333,-0.508496 0.0744,-0.07028 0.26872,-0.23151 0.34313,-0.30179 0.17364,-0.173633 0.38034,-0.376205 0.38034,-0.7028 0,-0.44235 -0.31006,-0.826822 -0.81855,-0.826822 -0.43822,0 -0.65733,0.297656 -0.74828,0.628385 0.0455,0.06615 0.0661,0.09095 0.0744,0.103353 0.008,0.0083 0.0455,0.05788 0.0827,0.111621 0.0786,-0.297656 0.18603,-0.599447 0.53743,-0.599447 0.35967,0 0.55811,0.289388 0.55811,0.591179 0,0.326595 -0.21911,0.545703 -0.44648,0.777213 z m 0,0"
       style="fill:#000000;fill-opacity:1;fill-rule:nonzero;stroke:none;stroke-width:0.352778"
       aria-label="4312" />
    <path
       id="path58"
       d="m 157.50253,56.984635 h 0.38448 V 56.74899 h -0.38448 v -1.632975 h -0.34726 l -0.97565,1.632975 v 0.235645 h 1.02112 v 0.657324 h 0.30179 z m -1.02112,-0.235645 c 0.19844,-0.330729 0.74,-1.244368 0.74,-1.463477 v 1.463477 z m 0,0"
       style="fill:#000000;fill-opacity:1;fill-rule:nonzero;stroke:none;stroke-width:0.352778"
       aria-label="4" />
    <path
       id="path59"
       d="m 158.35209,55.661718 c 0.11162,-0.268718 0.35967,-0.405143 0.59531,-0.405143 0.19844,0 0.38861,0.115755 0.38861,0.359668 0,0.235644 -0.1571,0.46302 -0.39274,0.516764 -0.0248,0.0041 -0.0289,0.0041 -0.30592,0.02894 v 0.23151 h 0.27698 c 0.41341,0 0.50023,0.359668 0.50023,0.549837 0,0.301791 -0.17777,0.549837 -0.47542,0.549837 -0.26459,0 -0.57051,-0.136425 -0.74001,-0.396874 l -0.0413,0.23151 c 0.28112,0.359668 0.63665,0.396875 0.78961,0.396875 0.47129,0 0.80616,-0.37207 0.80616,-0.777214 0,-0.347265 -0.26872,-0.587044 -0.52917,-0.669726 0.29352,-0.157096 0.42581,-0.417546 0.42581,-0.661458 0,-0.33073 -0.31832,-0.582911 -0.69866,-0.582911 -0.29766,0 -0.57878,0.152963 -0.74001,0.42168 z m 0,0"
       style="fill:#000000;fill-opacity:1;fill-rule:nonzero;stroke:none;stroke-width:0.352778"
       aria-label="3" />
    <path
       id="path60"
       d="m 160.58968,56.918489 -0.47543,0.475423 v 0.248047 h 1.53376 v -0.272852 h -0.69867 c -0.0496,0 -0.0951,0.0041 -0.14056,0.0041 h -0.41754 c 0.11989,-0.107487 0.41341,-0.396875 0.5333,-0.508496 0.0744,-0.07028 0.26872,-0.23151 0.34313,-0.30179 0.17363,-0.173633 0.38034,-0.376205 0.38034,-0.7028 0,-0.44235 -0.31006,-0.826822 -0.81855,-0.826822 -0.43822,0 -0.65733,0.297656 -0.74828,0.628385 0.0455,0.06615 0.0662,0.09095 0.0744,0.103353 0.008,0.0083 0.0455,0.05788 0.0827,0.111621 0.0786,-0.297656 0.18603,-0.599447 0.53743,-0.599447 0.35967,0 0.55811,0.289388 0.55811,0.591179 0,0.326595 -0.21911,0.545703 -0.44649,0.777213 z m 0,0"
       style="fill:#000000;fill-opacity:1;fill-rule:nonzero;stroke:none;stroke-width:0.352778"
       aria-label="2" />
    <path
       id="path61"
       d="m 162.99367,55.033333 h -0.0744 c -0.22738,0.235644 -0.54571,0.243912 -0.73174,0.25218 v 0.223243 c 0.12816,-0.0041 0.31006,-0.0124 0.50436,-0.09095 v 2.000912 h -0.48369 v 0.223242 h 1.26917 v -0.223242 h -0.48369 z m 0,0"
       style="fill:#000000;fill-opacity:1;fill-rule:nonzero;stroke:none;stroke-width:0.352778"
       aria-label="1" />
    <path
       id="path62"
       d="m 157.30636,113.76575 -4.77204,-4.7712"
       style="fill:none;stroke:#ff0000;stroke-width:0.140582;stroke-linecap:butt;stroke-linejoin:miter;stroke-miterlimit:10;stroke-dasharray:none;stroke-opacity:1" />
    <path
       id="path63"
       d="m 159.92038,113.76575 v -4.7712"
       style="fill:none;stroke:#0000ff;stroke-width:0.140582;stroke-linecap:butt;stroke-linejoin:miter;stroke-miterlimit:10;stroke-dasharray:none;stroke-opacity:1" />
    <path
       id="path64"
       d="m 162.5344,113.76575 4.77204,-4.7712"
       style="fill:none;stroke:#00ff00;stroke-width:0.140582;stroke-linecap:butt;stroke-linejoin:miter;stroke-miterlimit:10;stroke-dasharray:none;stroke-opacity:1" />
    <path
       id="path65"
       d="m 147.30624,103.76563 -4.77205,-4.771208"
       style="fill:none;stroke:#0000ff;stroke-width:0.140582;stroke-linecap:butt;stroke-linejoin:miter;stroke-miterlimit:10;stroke-dasharray:none;stroke-opacity:1" />
    <path
       id="path66"
       d="m 152.53428,103.76563 4.77204,-4.771208"
       style="fill:none;stroke:#00ff00;stroke-width:0.140582;stroke-linecap:butt;stroke-linejoin:miter;stroke-miterlimit:10;stroke-dasharray:none;stroke-opacity:1" />
    <path
       id="path67"
       d="m 157.30636,103.76563 -4.77204,-4.771208"
       style="fill:none;stroke:#ff0000;stroke-width:0.140582;stroke-linecap:butt;stroke-linejoin:miter;stroke-miterlimit:10;stroke-dasharray:none;stroke-opacity:1" />
    <path
       id="path68"
       d="m 162.5344,103.76563 4.77204,-4.771208"
       style="fill:none;stroke:#00ff00;stroke-width:0.140582;stroke-linecap:butt;stroke-linejoin:miter;stroke-miterlimit:10;stroke-dasharray:none;stroke-opacity:1" />
    <path
       id="path69"
       d="m 167.30648,103.76563 -4.77204,-4.771208"
       style="fill:none;stroke:#ff0000;stroke-width:0.140582;stroke-linecap:butt;stroke-linejoin:miter;stroke-miterlimit:10;stroke-dasharray:none;stroke-opacity:1" />
    <path
       id="path70"
       d="m 172.53452,103.76563 4.77205,-4.771208"
       style="fill:none;stroke:#0000ff;stroke-width:0.140582;stroke-linecap:butt;stroke-linejoin:miter;stroke-miterlimit:10;stroke-dasharray:none;stroke-opacity:1" />
    <path
       id="path71"
       d="M 138.61315,93.765501 136.2271,88.994302"
       style="fill:none;stroke:#ff0000;stroke-width:0.140582;stroke-linecap:butt;stroke-linejoin:miter;stroke-miterlimit:10;stroke-dasharray:none;stroke-opacity:1" />
    <path
       id="path72"
       d="m 141.22712,93.765501 2.38605,-4.771199"
       style="fill:none;stroke:#00ff00;stroke-width:0.140582;stroke-linecap:butt;stroke-linejoin:miter;stroke-miterlimit:10;stroke-dasharray:none;stroke-opacity:1" />
    <path
       id="path73"
       d="m 145.99924,93.765501 -7.15807,-4.771199"
       style="fill:none;stroke:#0000ff;stroke-width:0.140582;stroke-linecap:butt;stroke-linejoin:miter;stroke-miterlimit:10;stroke-dasharray:none;stroke-opacity:1" />
    <path
       id="path74"
       d="m 151.22725,93.765501 2.38604,-4.771199"
       style="fill:none;stroke:#00ff00;stroke-width:0.140582;stroke-linecap:butt;stroke-linejoin:miter;stroke-miterlimit:10;stroke-dasharray:none;stroke-opacity:1" />
    <path
       id="path75"
       d="m 161.22736,93.765501 2.38605,-4.771199"
       style="fill:none;stroke:#0000ff;stroke-width:0.140582;stroke-linecap:butt;stroke-linejoin:miter;stroke-miterlimit:10;stroke-dasharray:none;stroke-opacity:1" />
    <path
       id="path76"
       d="m 165.99949,93.765501 -7.15808,-4.771199"
       style="fill:none;stroke:#ff0000;stroke-width:0.140582;stroke-linecap:butt;stroke-linejoin:miter;stroke-miterlimit:10;stroke-dasharray:none;stroke-opacity:1" />
    <path
       id="path77"
       d="m 173.84152,93.765501 7.15807,-4.771199"
       style="fill:none;stroke:#0000ff;stroke-width:0.140582;stroke-linecap:butt;stroke-linejoin:miter;stroke-miterlimit:10;stroke-dasharray:none;stroke-opacity:1" />
    <path
       id="path78"
       d="m 178.61364,93.765501 -2.38605,-4.771199"
       style="fill:none;stroke:#ff0000;stroke-width:0.140582;stroke-linecap:butt;stroke-linejoin:miter;stroke-miterlimit:10;stroke-dasharray:none;stroke-opacity:1" />
    <path
       id="path79"
       d="m 181.22761,93.765501 2.38605,-4.771199"
       style="fill:none;stroke:#00ff00;stroke-width:0.140582;stroke-linecap:butt;stroke-linejoin:miter;stroke-miterlimit:10;stroke-dasharray:none;stroke-opacity:1" />
    <path
       id="path80"
       d="m 136.22706,83.76538 2.38605,-4.771206"
       style="fill:none;stroke:#00ff00;stroke-width:0.140582;stroke-linecap:butt;stroke-linejoin:miter;stroke-miterlimit:10;stroke-dasharray:none;stroke-opacity:1" />
    <path
       id="path81"
       d="m 143.61321,83.76538 -2.38605,-4.771206"
       style="fill:none;stroke:#ff0000;stroke-width:0.140582;stroke-linecap:butt;stroke-linejoin:miter;stroke-miterlimit:10;stroke-dasharray:none;stroke-opacity:1" />
    <path
       id="path82"
       d="m 146.22719,83.76538 2.38604,-4.771206"
       style="fill:none;stroke:#0000ff;stroke-width:0.140582;stroke-linecap:butt;stroke-linejoin:miter;stroke-miterlimit:10;stroke-dasharray:none;stroke-opacity:1" />
    <path
       id="path83"
       d="m 156.22731,83.76538 2.38604,-4.771206"
       style="fill:none;stroke:#0000ff;stroke-width:0.140582;stroke-linecap:butt;stroke-linejoin:miter;stroke-miterlimit:10;stroke-dasharray:none;stroke-opacity:1" />
    <path
       id="path84"
       d="m 166.22742,83.76538 2.38605,-4.771206"
       style="fill:none;stroke:#ff0000;stroke-width:0.140582;stroke-linecap:butt;stroke-linejoin:miter;stroke-miterlimit:10;stroke-dasharray:none;stroke-opacity:1" />
    <path
       id="path85"
       d="m 160.99942,83.76538 -7.15807,-4.771206"
       style="fill:none;stroke:#00ff00;stroke-width:0.140582;stroke-linecap:butt;stroke-linejoin:miter;stroke-miterlimit:10;stroke-dasharray:none;stroke-opacity:1" />
    <path
       id="path86"
       d="m 173.61357,83.76538 -2.38604,-4.771206"
       style="fill:none;stroke:#0000ff;stroke-width:0.140582;stroke-linecap:butt;stroke-linejoin:miter;stroke-miterlimit:10;stroke-dasharray:none;stroke-opacity:1" />
    <path
       id="path87"
       d="m 176.22755,83.76538 2.38605,-4.771206"
       style="fill:none;stroke:#00ff00;stroke-width:0.140582;stroke-linecap:butt;stroke-linejoin:miter;stroke-miterlimit:10;stroke-dasharray:none;stroke-opacity:1" />
    <path
       id="path88"
       d="m 183.6137,83.76538 -2.38605,-4.771206"
       style="fill:none;stroke:#ff0000;stroke-width:0.140582;stroke-linecap:butt;stroke-linejoin:miter;stroke-miterlimit:10;stroke-dasharray:none;stroke-opacity:1" />
    <path
       id="path89"
       d="m 142.53416,73.765253 4.77204,-4.771199"
       style="fill:none;stroke:#0000ff;stroke-width:0.140582;stroke-linecap:butt;stroke-linejoin:miter;stroke-miterlimit:10;stroke-dasharray:none;stroke-opacity:1" />
    <path
       id="path90"
       d="m 152.53428,73.765253 4.77204,-4.771199"
       style="fill:none;stroke:#ff0000;stroke-width:0.140582;stroke-linecap:butt;stroke-linejoin:miter;stroke-miterlimit:10;stroke-dasharray:none;stroke-opacity:1" />
    <path
       id="path91"
       d="m 162.5344,73.765253 4.77204,-4.771199"
       style="fill:none;stroke:#ff0000;stroke-width:0.140582;stroke-linecap:butt;stroke-linejoin:miter;stroke-miterlimit:10;stroke-dasharray:none;stroke-opacity:1" />
    <path
       id="path92"
       d="m 157.30636,73.765253 -4.77204,-4.771199"
       style="fill:none;stroke:#00ff00;stroke-width:0.140582;stroke-linecap:butt;stroke-linejoin:miter;stroke-miterlimit:10;stroke-dasharray:none;stroke-opacity:1" />
    <path
       id="path93"
       d="m 167.30648,73.765253 -4.77204,-4.771199"
       style="fill:none;stroke:#00ff00;stroke-width:0.140582;stroke-linecap:butt;stroke-linejoin:miter;stroke-miterlimit:10;stroke-dasharray:none;stroke-opacity:1" />
    <path
       id="path94"
       d="m 177.3066,73.765253 -4.77204,-4.771199"
       style="fill:none;stroke:#0000ff;stroke-width:0.140582;stroke-linecap:butt;stroke-linejoin:miter;stroke-miterlimit:10;stroke-dasharray:none;stroke-opacity:1" />
    <path
       id="path95"
       d="m 152.53428,63.765132 4.77204,-4.771203"
       style="fill:none;stroke:#ff0000;stroke-width:0.140582;stroke-linecap:butt;stroke-linejoin:miter;stroke-miterlimit:10;stroke-dasharray:none;stroke-opacity:1" />
    <path
       id="path96"
       d="M 159.92038,63.765132 V 58.993929"
       style="fill:none;stroke:#0000ff;stroke-width:0.140582;stroke-linecap:butt;stroke-linejoin:miter;stroke-miterlimit:10;stroke-dasharray:none;stroke-opacity:1" />
    <path
       id="path97"
       d="m 167.30648,63.765132 -4.77204,-4.771203"
       style="fill:none;stroke:#00ff00;stroke-width:0.140582;stroke-linecap:butt;stroke-linejoin:miter;stroke-miterlimit:10;stroke-dasharray:none;stroke-opacity:1" />
  </g>
</svg>
